{
	"patcher" : 	{
		"fileversion" : 1,
		"appversion" : 		{
			"major" : 8,
			"minor" : 5,
			"revision" : 5,
			"architecture" : "x64",
			"modernui" : 1
		}
,
		"classnamespace" : "box",
		"rect" : [ 1474.0, -211.0, 1212.0, 1319.0 ],
		"bglocked" : 0,
		"openinpresentation" : 1,
		"default_fontsize" : 12.0,
		"default_fontface" : 0,
		"default_fontname" : "Arial",
		"gridonopen" : 1,
		"gridsize" : [ 15.0, 15.0 ],
		"gridsnaponopen" : 1,
		"objectsnaponopen" : 1,
		"statusbarvisible" : 2,
		"toolbarvisible" : 1,
		"lefttoolbarpinned" : 0,
		"toptoolbarpinned" : 0,
		"righttoolbarpinned" : 0,
		"bottomtoolbarpinned" : 0,
		"toolbars_unpinned_last_save" : 0,
		"tallnewobj" : 0,
		"boxanimatetime" : 200,
		"enablehscroll" : 1,
		"enablevscroll" : 1,
		"devicewidth" : 0.0,
		"description" : "",
		"digest" : "",
		"tags" : "",
		"style" : "",
		"subpatcher_template" : "",
		"assistshowspatchername" : 0,
		"boxes" : [ 			{
				"box" : 				{
					"fontsize" : 16.0,
					"id" : "obj-44",
					"linecount" : 5,
					"maxclass" : "comment",
					"numinlets" : 1,
					"numoutlets" : 0,
					"patching_rect" : [ 199.5, 34.0, 566.0, 96.0 ],
					"text" : "Stereo Delay Effect\n\nCan be used to create Flanging sounds if /automation/enable is set to 1.\n\nExpects parameters to be in OSC format."
				}

			}
, 			{
				"box" : 				{
					"id" : "obj-36",
					"maxclass" : "newobj",
					"numinlets" : 1,
					"numoutlets" : 1,
					"outlettype" : [ "" ],
					"patching_rect" : [ 322.0, 448.0, 73.0, 22.0 ],
					"text" : "loadmess 0."
				}

			}
, 			{
				"box" : 				{
					"fontface" : 0,
					"id" : "obj-34",
					"maxclass" : "comment",
					"numinlets" : 1,
					"numoutlets" : 0,
					"patching_rect" : [ 1688.200000000000045, 621.0, 37.0, 20.0 ],
					"presentation" : 1,
					"presentation_rect" : [ 76.0, 100.273885846138, 61.0, 20.0 ],
					"text" : "Gain",
					"textcolor" : [ 0.999995052814484, 1.0, 1.0, 1.0 ],
					"textjustification" : 1
				}

			}
, 			{
				"box" : 				{
					"id" : "obj-32",
					"maxclass" : "newobj",
					"numinlets" : 1,
					"numoutlets" : 1,
					"outlettype" : [ "" ],
					"patching_rect" : [ 403.93333333333328, 898.0, 73.0, 22.0 ],
					"text" : "loadmess 1."
				}

			}
, 			{
				"box" : 				{
					"bgcolor" : [ 0.098038777709007, 0.098041713237762, 0.09804005920887, 1.0 ],
					"fontface" : 0,
					"fontname" : "Arial",
					"fontsize" : 12.0,
					"id" : "obj-21",
					"maxclass" : "number~",
					"mode" : 1,
					"numinlets" : 2,
					"numoutlets" : 2,
					"outlettype" : [ "signal", "float" ],
					"patching_rect" : [ 403.93333333333328, 930.0, 56.0, 22.0 ],
					"presentation" : 1,
					"presentation_rect" : [ 78.5, 122.273885846138, 56.0, 22.0 ],
					"sig" : 1.0
				}

			}
, 			{
				"box" : 				{
					"id" : "obj-18",
					"maxclass" : "newobj",
					"numinlets" : 2,
					"numoutlets" : 1,
					"outlettype" : [ "signal" ],
					"patching_rect" : [ 643.0, 972.0, 81.0, 22.0 ],
					"text" : "*~ 1."
				}

			}
, 			{
				"box" : 				{
					"id" : "obj-3",
					"maxclass" : "newobj",
					"numinlets" : 2,
					"numoutlets" : 1,
					"outlettype" : [ "signal" ],
					"patching_rect" : [ 59.0, 972.0, 81.0, 22.0 ],
					"text" : "*~ 1."
				}

			}
, 			{
				"box" : 				{
					"id" : "obj-52",
					"maxclass" : "newobj",
					"numinlets" : 1,
					"numoutlets" : 4,
					"outlettype" : [ "", "", "", "FullPacket" ],
					"patching_rect" : [ 659.5, 172.0, 366.25, 22.0 ],
					"text" : "o.route /enable /rate /depth"
				}

			}
, 			{
				"box" : 				{
					"id" : "obj-51",
					"maxclass" : "newobj",
					"numinlets" : 1,
					"numoutlets" : 5,
					"outlettype" : [ "", "", "", "", "FullPacket" ],
					"patching_rect" : [ 100.0, 137.0, 765.0, 22.0 ],
					"text" : "o.route /mix /feedback /ms /automation"
				}

			}
, 			{
				"box" : 				{
					"id" : "obj-50",
					"maxclass" : "newobj",
					"numinlets" : 1,
					"numoutlets" : 2,
					"outlettype" : [ "", "FullPacket" ],
					"patching_rect" : [ 100.0, 108.0, 81.0, 22.0 ],
					"text" : "o.route /delay"
				}

			}
, 			{
				"box" : 				{
					"annotation" : "OSC Variables (OSC)",
					"comment" : "OSC Variables (OSC)",
					"hint" : "OSC Variables (OSC)",
					"id" : "obj-49",
					"index" : 0,
					"maxclass" : "inlet",
					"numinlets" : 0,
					"numoutlets" : 1,
					"outlettype" : [ "" ],
					"patching_rect" : [ 100.0, 68.0, 30.0, 30.0 ],
					"varname" : "Input[1]"
				}

			}
, 			{
				"box" : 				{
					"id" : "obj-48",
					"maxclass" : "newobj",
					"numinlets" : 1,
					"numoutlets" : 2,
					"outlettype" : [ "int", "int" ],
					"patching_rect" : [ 264.699999999999818, 527.5, 31.0, 22.0 ],
					"text" : "t i i"
				}

			}
, 			{
				"box" : 				{
					"annotation" : "Input Signal (R)",
					"comment" : "Input Signal (R)",
					"hint" : "Input Signal (R)",
					"id" : "obj-1",
					"index" : 0,
					"maxclass" : "inlet",
					"numinlets" : 0,
					"numoutlets" : 1,
					"outlettype" : [ "" ],
					"patching_rect" : [ 643.0, 357.0, 30.0, 30.0 ],
					"varname" : "Input"
				}

			}
, 			{
				"box" : 				{
					"annotation" : "Output Signal (R)",
					"comment" : "Output Signal (R)",
					"hint" : "Output Signal (R)",
					"id" : "obj-2",
					"index" : 0,
					"maxclass" : "outlet",
					"numinlets" : 1,
					"numoutlets" : 0,
					"patching_rect" : [ 643.0, 1006.0, 30.0, 30.0 ]
				}

			}
, 			{
				"box" : 				{
					"id" : "obj-6",
					"maxclass" : "newobj",
					"numinlets" : 2,
					"numoutlets" : 1,
					"outlettype" : [ "float" ],
					"patching_rect" : [ 684.0, 361.0, 60.5, 22.0 ],
					"text" : "!- 1."
				}

			}
, 			{
				"box" : 				{
					"id" : "obj-8",
					"maxclass" : "newobj",
					"numinlets" : 2,
					"numoutlets" : 1,
					"outlettype" : [ "signal" ],
					"patching_rect" : [ 961.5, 406.0, 34.0, 22.0 ],
					"text" : "*~ 0."
				}

			}
, 			{
				"box" : 				{
					"id" : "obj-9",
					"maxclass" : "newobj",
					"numinlets" : 2,
					"numoutlets" : 1,
					"outlettype" : [ "signal" ],
					"patching_rect" : [ 643.0, 406.0, 60.0, 22.0 ],
					"text" : "*~ 1."
				}

			}
, 			{
				"box" : 				{
					"id" : "obj-31",
					"maxclass" : "newobj",
					"numinlets" : 2,
					"numoutlets" : 1,
					"outlettype" : [ "int" ],
					"patching_rect" : [ 978.999999999999773, 759.0, 31.0, 22.0 ],
					"text" : "+ 1"
				}

			}
, 			{
				"box" : 				{
					"id" : "obj-33",
					"maxclass" : "newobj",
					"numinlets" : 3,
					"numoutlets" : 1,
					"outlettype" : [ "signal" ],
					"patching_rect" : [ 978.999999999999773, 800.5, 108.0, 22.0 ],
					"text" : "selector~ 2"
				}

			}
, 			{
				"box" : 				{
					"id" : "obj-40",
					"maxclass" : "newobj",
					"numinlets" : 2,
					"numoutlets" : 1,
					"outlettype" : [ "signal" ],
					"patching_rect" : [ 1067.999999999999773, 759.0, 49.0, 22.0 ],
					"text" : "+~ 100."
				}

			}
, 			{
				"box" : 				{
					"id" : "obj-41",
					"maxclass" : "newobj",
					"numinlets" : 2,
					"numoutlets" : 1,
					"outlettype" : [ "signal" ],
					"patching_rect" : [ 1067.999999999999773, 719.5, 47.0, 22.0 ],
					"text" : "*~ 100."
				}

			}
, 			{
				"box" : 				{
					"id" : "obj-42",
					"maxclass" : "newobj",
					"numinlets" : 2,
					"numoutlets" : 1,
					"outlettype" : [ "signal" ],
					"patching_rect" : [ 1067.999999999999773, 677.0, 47.0, 22.0 ],
					"text" : "*~ 0.25"
				}

			}
, 			{
				"box" : 				{
					"id" : "obj-43",
					"maxclass" : "newobj",
					"numinlets" : 2,
					"numoutlets" : 1,
					"outlettype" : [ "signal" ],
					"patching_rect" : [ 1067.999999999999773, 634.5, 56.0, 22.0 ],
					"text" : "cycle~ 2."
				}

			}
, 			{
				"box" : 				{
					"id" : "obj-45",
					"maxclass" : "newobj",
					"numinlets" : 2,
					"numoutlets" : 1,
					"outlettype" : [ "signal" ],
					"patching_rect" : [ 961.5, 877.0, 119.0, 22.0 ],
					"text" : "*~ 0.5"
				}

			}
, 			{
				"box" : 				{
					"id" : "obj-46",
					"maxclass" : "newobj",
					"numinlets" : 1,
					"numoutlets" : 1,
					"outlettype" : [ "signal" ],
					"patching_rect" : [ 961.5, 836.0, 72.0, 22.0 ],
					"text" : "tapout~ 250"
				}

			}
, 			{
				"box" : 				{
					"id" : "obj-47",
					"maxclass" : "newobj",
					"numinlets" : 1,
					"numoutlets" : 1,
					"outlettype" : [ "tapconnect" ],
					"patching_rect" : [ 961.5, 448.0, 72.0, 22.0 ],
					"text" : "tapin~ 1000"
				}

			}
, 			{
				"box" : 				{
					"fontface" : 0,
					"id" : "obj-29",
					"maxclass" : "comment",
					"numinlets" : 1,
					"numoutlets" : 0,
					"patching_rect" : [ 466.200000000000045, 1032.0, 61.0, 20.0 ],
					"presentation" : 1,
					"presentation_rect" : [ 76.0, 54.273885846138, 61.0, 20.0 ],
					"text" : "Feedback",
					"textcolor" : [ 0.999995052814484, 1.0, 1.0, 1.0 ],
					"textjustification" : 1
				}

			}
, 			{
				"box" : 				{
					"fontface" : 0,
					"id" : "obj-28",
					"maxclass" : "comment",
					"numinlets" : 1,
					"numoutlets" : 0,
					"patching_rect" : [ 466.200000000000045, 1177.0, 43.0, 20.0 ],
					"presentation" : 1,
					"presentation_rect" : [ 301.0, 59.636942923069, 42.0, 20.0 ],
					"text" : "Depth",
					"textcolor" : [ 0.999995052814484, 1.0, 1.0, 1.0 ]
				}

			}
, 			{
				"box" : 				{
					"fontface" : 0,
					"id" : "obj-27",
					"maxclass" : "comment",
					"numinlets" : 1,
					"numoutlets" : 0,
					"patching_rect" : [ 416.200000000000045, 1207.0, 49.0, 20.0 ],
					"presentation" : 1,
					"presentation_rect" : [ 157.0, 59.636942923069, 56.0, 20.0 ],
					"text" : "Enable",
					"textcolor" : [ 0.999995052814484, 1.0, 1.0, 1.0 ],
					"textjustification" : 1
				}

			}
, 			{
				"box" : 				{
					"fontface" : 0,
					"id" : "obj-26",
					"maxclass" : "comment",
					"numinlets" : 1,
					"numoutlets" : 0,
					"patching_rect" : [ 416.200000000000045, 1177.0, 37.0, 20.0 ],
					"presentation" : 1,
					"presentation_rect" : [ 233.699999999999818, 59.636942923069, 38.0, 20.0 ],
					"text" : "Rate",
					"textcolor" : [ 0.999995052814484, 1.0, 1.0, 1.0 ],
					"textjustification" : 1
				}

			}
, 			{
				"box" : 				{
					"fontface" : 0,
					"id" : "obj-25",
					"maxclass" : "comment",
					"numinlets" : 1,
					"numoutlets" : 0,
					"patching_rect" : [ 416.200000000000045, 1147.0, 140.0, 20.0 ],
					"presentation" : 1,
					"presentation_rect" : [ 162.700000000000045, 35.0, 188.0, 20.0 ],
					"text" : "Automation Parameters",
					"textcolor" : [ 0.999995052814484, 1.0, 1.0, 1.0 ],
					"textjustification" : 1
				}

			}
, 			{
				"box" : 				{
					"fontface" : 0,
					"id" : "obj-39",
					"maxclass" : "comment",
					"numinlets" : 1,
					"numoutlets" : 0,
					"patching_rect" : [ 416.200000000000045, 1062.0, 69.0, 20.0 ],
					"presentation" : 1,
					"presentation_rect" : [ 72.5, 6.0, 68.0, 20.0 ],
					"text" : "Delay (ms)",
					"textcolor" : [ 0.999995052814484, 1.0, 1.0, 1.0 ],
					"textjustification" : 1
				}

			}
, 			{
				"box" : 				{
					"fontface" : 0,
					"id" : "obj-38",
					"maxclass" : "comment",
					"numinlets" : 1,
					"numoutlets" : 0,
					"patching_rect" : [ 416.200000000000045, 1032.0, 35.0, 20.0 ],
					"presentation" : 1,
					"presentation_rect" : [ 24.5, 37.363056999999998, 31.0, 20.0 ],
					"text" : "Mix",
					"textcolor" : [ 0.999995052814484, 1.0, 1.0, 1.0 ],
					"textjustification" : 1
				}

			}
, 			{
				"box" : 				{
					"fontface" : 1,
					"fontsize" : 14.0,
					"id" : "obj-37",
					"maxclass" : "comment",
					"numinlets" : 1,
					"numoutlets" : 0,
					"patching_rect" : [ 416.200000000000045, 1002.0, 67.0, 22.0 ],
					"presentation" : 1,
					"presentation_rect" : [ 7.0, 6.0, 66.0, 22.0 ],
					"text" : "delayZ~",
					"textcolor" : [ 0.0, 0.0, 0.0, 1.0 ]
				}

			}
, 			{
				"box" : 				{
					"annotation" : "Input Signal (L)",
					"comment" : "Input Signal (L)",
					"hint" : "Input Signal (L)",
					"id" : "obj-24",
					"index" : 0,
					"maxclass" : "inlet",
					"numinlets" : 0,
					"numoutlets" : 1,
					"outlettype" : [ "" ],
					"patching_rect" : [ 59.0, 357.0, 30.0, 30.0 ]
				}

			}
, 			{
				"box" : 				{
					"annotation" : "Output Signal (L)",
					"comment" : "Output Signal (L)",
					"hint" : "Output Signal (L)",
					"id" : "obj-23",
					"index" : 0,
					"maxclass" : "outlet",
					"numinlets" : 1,
					"numoutlets" : 0,
					"patching_rect" : [ 59.0, 1006.0, 30.0, 30.0 ]
				}

			}
, 			{
				"box" : 				{
					"id" : "obj-274",
					"maxclass" : "newobj",
					"numinlets" : 1,
					"numoutlets" : 4,
					"outlettype" : [ "float", "float", "float", "float" ],
					"patching_rect" : [ 100.0, 328.0, 895.5, 22.0 ],
					"text" : "t f f f f"
				}

			}
, 			{
				"box" : 				{
					"id" : "obj-270",
					"maxclass" : "newobj",
					"numinlets" : 2,
					"numoutlets" : 1,
					"outlettype" : [ "float" ],
					"patching_rect" : [ 100.0, 361.0, 60.5, 22.0 ],
					"text" : "!- 1."
				}

			}
, 			{
				"box" : 				{
					"id" : "obj-269",
					"maxclass" : "newobj",
					"numinlets" : 2,
					"numoutlets" : 1,
					"outlettype" : [ "signal" ],
					"patching_rect" : [ 242.200000000000045, 406.0, 168.96666666666664, 22.0 ],
					"text" : "*~ 0."
				}

			}
, 			{
				"box" : 				{
					"id" : "obj-268",
					"maxclass" : "newobj",
					"numinlets" : 2,
					"numoutlets" : 1,
					"outlettype" : [ "signal" ],
					"patching_rect" : [ 59.0, 406.0, 60.0, 22.0 ],
					"text" : "*~ 1."
				}

			}
, 			{
				"box" : 				{
					"bgcolor" : [ 0.098038777709007, 0.098041713237762, 0.09804005920887, 1.0 ],
					"floatoutput" : 1,
					"id" : "obj-265",
					"maxclass" : "dial",
					"mult" : 0.01,
					"needlecolor" : [ 0.986251831054688, 0.007236152887344, 0.027423052117229, 1.0 ],
					"numinlets" : 1,
					"numoutlets" : 1,
					"outlettype" : [ "float" ],
					"outlinecolor" : [ 0.501962602138519, 0.0, 0.008127624168992, 1.0 ],
					"parameter_enable" : 0,
					"patching_rect" : [ 100.0, 273.0, 40.0, 40.0 ],
					"presentation" : 1,
					"presentation_rect" : [ 13.363057, 59.363056999999998, 53.273885999999997, 53.273885999999997 ],
					"size" : 100.0,
					"thickness" : 90.0
				}

			}
, 			{
				"box" : 				{
					"bgcolor" : [ 0.098038777709007, 0.098041713237762, 0.09804005920887, 1.0 ],
					"fontface" : 0,
					"fontname" : "Arial",
					"fontsize" : 12.0,
					"id" : "obj-22",
					"maxclass" : "number~",
					"maximum" : 0.9,
					"minimum" : 0.0,
					"mode" : 1,
					"numinlets" : 2,
					"numoutlets" : 2,
					"outlettype" : [ "signal", "float" ],
					"patching_rect" : [ 775.200000000000045, 825.0, 56.0, 22.0 ],
					"presentation" : 1,
					"presentation_rect" : [ 78.5, 76.273885846138, 56.0, 22.0 ],
					"sig" : 0.5
				}

			}
, 			{
				"box" : 				{
					"id" : "obj-20",
					"maxclass" : "newobj",
					"numinlets" : 2,
					"numoutlets" : 1,
					"outlettype" : [ "int" ],
					"patching_rect" : [ 264.699999999999818, 759.0, 31.0, 22.0 ],
					"text" : "+ 1"
				}

			}
, 			{
				"box" : 				{
					"bgcolor" : [ 0.098038777709007, 0.098041713237762, 0.09804005920887, 1.0 ],
					"checkedcolor" : [ 0.986251831054688, 0.007236152887344, 0.027423052117229, 1.0 ],
					"id" : "obj-19",
					"maxclass" : "toggle",
					"numinlets" : 1,
					"numoutlets" : 1,
					"outlettype" : [ "int" ],
					"parameter_enable" : 0,
					"patching_rect" : [ 264.699999999999818, 486.0, 31.0, 31.0 ],
					"presentation" : 1,
					"presentation_rect" : [ 169.5, 81.636942923069, 31.0, 31.0 ],
					"uncheckedcolor" : [ 0.501962602138519, 0.0, 0.008127624168992, 1.0 ]
				}

			}
, 			{
				"box" : 				{
					"id" : "obj-17",
					"maxclass" : "newobj",
					"numinlets" : 3,
					"numoutlets" : 1,
					"outlettype" : [ "signal" ],
					"patching_rect" : [ 264.699999999999818, 800.5, 334.466666666666924, 22.0 ],
					"text" : "selector~ 2"
				}

			}
, 			{
				"box" : 				{
					"bgcolor" : [ 0.098038777709007, 0.098041713237762, 0.09804005920887, 1.0 ],
					"fontface" : 0,
					"fontname" : "Arial",
					"fontsize" : 12.0,
					"id" : "obj-16",
					"maxclass" : "number~",
					"minimum" : 0.0,
					"mode" : 1,
					"numinlets" : 2,
					"numoutlets" : 2,
					"outlettype" : [ "signal", "float" ],
					"patching_rect" : [ 775.25, 673.0, 56.0, 22.0 ],
					"presentation" : 1,
					"presentation_rect" : [ 78.5, 28.0, 56.0, 22.0 ],
					"sig" : 50.0
				}

			}
, 			{
				"box" : 				{
					"bgcolor" : [ 0.0, 0.0, 0.0, 1.0 ],
					"fontface" : 0,
					"fontname" : "Arial",
					"fontsize" : 12.0,
					"id" : "obj-15",
					"maxclass" : "number~",
					"maximum" : 1.0,
					"minimum" : 0.0,
					"mode" : 1,
					"numinlets" : 2,
					"numoutlets" : 2,
					"outlettype" : [ "signal", "float" ],
					"patching_rect" : [ 775.25, 621.0, 56.0, 22.0 ],
					"presentation" : 1,
					"presentation_rect" : [ 294.0, 86.136942923069, 56.0, 22.0 ],
					"sig" : 0.25
				}

			}
, 			{
				"box" : 				{
					"id" : "obj-14",
					"maxclass" : "newobj",
					"numinlets" : 2,
					"numoutlets" : 1,
					"outlettype" : [ "signal" ],
					"patching_rect" : [ 580.166666666666742, 759.0, 49.0, 22.0 ],
					"text" : "+~ 100."
				}

			}
, 			{
				"box" : 				{
					"id" : "obj-13",
					"maxclass" : "newobj",
					"numinlets" : 2,
					"numoutlets" : 1,
					"outlettype" : [ "signal" ],
					"patching_rect" : [ 580.166666666666742, 719.5, 47.0, 22.0 ],
					"text" : "*~ 100."
				}

			}
, 			{
				"box" : 				{
					"id" : "obj-12",
					"maxclass" : "newobj",
					"numinlets" : 2,
					"numoutlets" : 1,
					"outlettype" : [ "signal" ],
					"patching_rect" : [ 580.166666666666742, 677.0, 47.0, 22.0 ],
					"text" : "*~ 0.25"
				}

			}
, 			{
				"box" : 				{
					"id" : "obj-11",
					"maxclass" : "newobj",
					"numinlets" : 2,
					"numoutlets" : 1,
					"outlettype" : [ "signal" ],
					"patching_rect" : [ 580.166666666666742, 634.5, 56.0, 22.0 ],
					"text" : "cycle~ 2."
				}

			}
, 			{
				"box" : 				{
					"bgcolor" : [ 0.0, 0.0, 0.0, 1.0 ],
					"fontface" : 0,
					"fontname" : "Arial",
					"fontsize" : 12.0,
					"id" : "obj-10",
					"maxclass" : "number~",
					"minimum" : 0.001,
					"mode" : 1,
					"numinlets" : 2,
					"numoutlets" : 2,
					"outlettype" : [ "signal", "float" ],
					"patching_rect" : [ 775.25, 573.0, 56.0, 22.0 ],
					"presentation" : 1,
					"presentation_rect" : [ 224.699999999999818, 86.136942923069, 56.0, 22.0 ],
					"sig" : 0.05
				}

			}
, 			{
				"box" : 				{
					"id" : "obj-7",
					"maxclass" : "newobj",
					"numinlets" : 2,
					"numoutlets" : 1,
					"outlettype" : [ "signal" ],
					"patching_rect" : [ 242.200000000000045, 877.0, 119.0, 22.0 ],
					"text" : "*~ 0.5"
				}

			}
, 			{
				"box" : 				{
					"id" : "obj-5",
					"maxclass" : "newobj",
					"numinlets" : 1,
					"numoutlets" : 1,
					"outlettype" : [ "signal" ],
					"patching_rect" : [ 242.200000000000045, 836.0, 72.0, 22.0 ],
					"text" : "tapout~ 250"
				}

			}
, 			{
				"box" : 				{
					"id" : "obj-4",
					"maxclass" : "newobj",
					"numinlets" : 1,
					"numoutlets" : 1,
					"outlettype" : [ "tapconnect" ],
					"patching_rect" : [ 242.200000000000045, 448.0, 72.0, 22.0 ],
					"text" : "tapin~ 1000"
				}

			}
, 			{
				"box" : 				{
					"angle" : 270.0,
					"bgcolor" : [ 0.199999153614044, 0.200005099177361, 0.20000171661377, 1.0 ],
					"border" : 2,
					"bordercolor" : [ 0.999995052814484, 1.0, 1.0, 1.0 ],
					"id" : "obj-30",
					"maxclass" : "panel",
					"mode" : 0,
					"numinlets" : 1,
					"numoutlets" : 0,
					"patching_rect" : [ 272.0, 1147.0, 128.0, 128.0 ],
					"presentation" : 1,
					"presentation_rect" : [ 151.200000000000045, 28.0, 211.0, 99.273885846138 ],
					"proportion" : 0.5,
					"rounded" : 12
				}

			}
, 			{
				"box" : 				{
					"angle" : 270.0,
					"bgcolor" : [ 0.399998277425766, 0.400010287761688, 0.400003433227539, 1.0 ],
					"border" : 2,
					"bordercolor" : [ 0.0, 0.0, 0.0, 1.0 ],
					"id" : "obj-35",
					"maxclass" : "panel",
					"mode" : 0,
					"numinlets" : 1,
					"numoutlets" : 0,
					"patching_rect" : [ 272.0, 1002.0, 128.0, 128.0 ],
					"presentation" : 1,
					"presentation_rect" : [ 0.0, 0.0, 373.0, 151.273886000000005 ],
					"proportion" : 0.5,
					"rounded" : 12
				}

			}
 ],
		"lines" : [ 			{
				"patchline" : 				{
					"destination" : [ "obj-8", 0 ],
					"midpoints" : [ 652.5, 396.0, 971.0, 396.0 ],
					"order" : 0,
					"source" : [ "obj-1", 0 ]
				}

			}
, 			{
				"patchline" : 				{
					"destination" : [ "obj-9", 0 ],
					"order" : 1,
					"source" : [ "obj-1", 0 ]
				}

			}
, 			{
				"patchline" : 				{
					"destination" : [ "obj-11", 0 ],
					"midpoints" : [ 784.75, 608.25, 589.666666666666742, 608.25 ],
					"order" : 1,
					"source" : [ "obj-10", 0 ]
				}

			}
, 			{
				"patchline" : 				{
					"destination" : [ "obj-43", 0 ],
					"midpoints" : [ 784.75, 607.75, 1077.499999999999773, 607.75 ],
					"order" : 0,
					"source" : [ "obj-10", 0 ]
				}

			}
, 			{
				"patchline" : 				{
					"destination" : [ "obj-12", 0 ],
					"source" : [ "obj-11", 0 ]
				}

			}
, 			{
				"patchline" : 				{
					"destination" : [ "obj-13", 0 ],
					"source" : [ "obj-12", 0 ]
				}

			}
, 			{
				"patchline" : 				{
					"destination" : [ "obj-14", 0 ],
					"source" : [ "obj-13", 0 ]
				}

			}
, 			{
				"patchline" : 				{
					"destination" : [ "obj-17", 2 ],
					"source" : [ "obj-14", 0 ]
				}

			}
, 			{
				"patchline" : 				{
					"destination" : [ "obj-12", 1 ],
					"midpoints" : [ 784.75, 663.5, 617.666666666666742, 663.5 ],
					"order" : 1,
					"source" : [ "obj-15", 0 ]
				}

			}
, 			{
				"patchline" : 				{
					"destination" : [ "obj-42", 1 ],
					"midpoints" : [ 784.75, 662.5, 1105.499999999999773, 662.5 ],
					"order" : 0,
					"source" : [ "obj-15", 0 ]
				}

			}
, 			{
				"patchline" : 				{
					"destination" : [ "obj-13", 1 ],
					"midpoints" : [ 784.75, 709.75, 617.666666666666742, 709.75 ],
					"order" : 4,
					"source" : [ "obj-16", 0 ]
				}

			}
, 			{
				"patchline" : 				{
					"destination" : [ "obj-14", 1 ],
					"midpoints" : [ 784.75, 749.0, 619.666666666666742, 749.0 ],
					"order" : 3,
					"source" : [ "obj-16", 0 ]
				}

			}
, 			{
				"patchline" : 				{
					"destination" : [ "obj-17", 1 ],
					"midpoints" : [ 784.75, 791.25, 431.93333333333328, 791.25 ],
					"order" : 5,
					"source" : [ "obj-16", 0 ]
				}

			}
, 			{
				"patchline" : 				{
					"destination" : [ "obj-33", 1 ],
					"midpoints" : [ 784.75, 790.25, 1032.999999999999773, 790.25 ],
					"order" : 2,
					"source" : [ "obj-16", 0 ]
				}

			}
, 			{
				"patchline" : 				{
					"destination" : [ "obj-40", 1 ],
					"midpoints" : [ 784.75, 748.75, 1107.499999999999773, 748.75 ],
					"order" : 0,
					"source" : [ "obj-16", 0 ]
				}

			}
, 			{
				"patchline" : 				{
					"destination" : [ "obj-41", 1 ],
					"midpoints" : [ 784.75, 708.75, 1105.499999999999773, 708.75 ],
					"order" : 1,
					"source" : [ "obj-16", 0 ]
				}

			}
, 			{
				"patchline" : 				{
					"destination" : [ "obj-5", 0 ],
					"source" : [ "obj-17", 0 ]
				}

			}
, 			{
				"patchline" : 				{
					"destination" : [ "obj-2", 0 ],
					"source" : [ "obj-18", 0 ]
				}

			}
, 			{
				"patchline" : 				{
					"destination" : [ "obj-48", 0 ],
					"source" : [ "obj-19", 0 ]
				}

			}
, 			{
				"patchline" : 				{
					"destination" : [ "obj-17", 0 ],
					"source" : [ "obj-20", 0 ]
				}

			}
, 			{
				"patchline" : 				{
					"destination" : [ "obj-18", 1 ],
					"midpoints" : [ 413.43333333333328, 961.5, 714.5, 961.5 ],
					"order" : 0,
					"source" : [ "obj-21", 0 ]
				}

			}
, 			{
				"patchline" : 				{
					"destination" : [ "obj-3", 1 ],
					"midpoints" : [ 413.43333333333328, 961.5, 130.5, 961.5 ],
					"order" : 1,
					"source" : [ "obj-21", 0 ]
				}

			}
, 			{
				"patchline" : 				{
					"destination" : [ "obj-45", 1 ],
					"midpoints" : [ 784.700000000000045, 866.5, 1071.0, 866.5 ],
					"order" : 0,
					"source" : [ "obj-22", 0 ]
				}

			}
, 			{
				"patchline" : 				{
					"destination" : [ "obj-7", 1 ],
					"midpoints" : [ 784.700000000000045, 866.5, 351.700000000000045, 866.5 ],
					"order" : 1,
					"source" : [ "obj-22", 0 ]
				}

			}
, 			{
				"patchline" : 				{
					"destination" : [ "obj-268", 0 ],
					"order" : 1,
					"source" : [ "obj-24", 0 ]
				}

			}
, 			{
				"patchline" : 				{
					"destination" : [ "obj-269", 0 ],
					"midpoints" : [ 68.5, 396.0, 251.700000000000045, 396.0 ],
					"order" : 0,
					"source" : [ "obj-24", 0 ]
				}

			}
, 			{
				"patchline" : 				{
					"destination" : [ "obj-274", 0 ],
					"source" : [ "obj-265", 0 ]
				}

			}
, 			{
				"patchline" : 				{
					"destination" : [ "obj-3", 0 ],
					"source" : [ "obj-268", 0 ]
				}

			}
, 			{
				"patchline" : 				{
					"destination" : [ "obj-4", 0 ],
					"source" : [ "obj-269", 0 ]
				}

			}
, 			{
				"patchline" : 				{
					"destination" : [ "obj-268", 1 ],
					"source" : [ "obj-270", 0 ]
				}

			}
, 			{
				"patchline" : 				{
					"destination" : [ "obj-269", 1 ],
					"source" : [ "obj-274", 1 ]
				}

			}
, 			{
				"patchline" : 				{
					"destination" : [ "obj-270", 0 ],
					"source" : [ "obj-274", 0 ]
				}

			}
, 			{
				"patchline" : 				{
					"destination" : [ "obj-6", 0 ],
					"source" : [ "obj-274", 2 ]
				}

			}
, 			{
				"patchline" : 				{
					"destination" : [ "obj-8", 1 ],
					"source" : [ "obj-274", 3 ]
				}

			}
, 			{
				"patchline" : 				{
					"destination" : [ "obj-23", 0 ],
					"source" : [ "obj-3", 0 ]
				}

			}
, 			{
				"patchline" : 				{
					"destination" : [ "obj-33", 0 ],
					"source" : [ "obj-31", 0 ]
				}

			}
, 			{
				"patchline" : 				{
					"destination" : [ "obj-21", 0 ],
					"source" : [ "obj-32", 0 ]
				}

			}
, 			{
				"patchline" : 				{
					"destination" : [ "obj-46", 0 ],
					"source" : [ "obj-33", 0 ]
				}

			}
, 			{
				"patchline" : 				{
					"destination" : [ "obj-19", 0 ],
					"midpoints" : [ 331.5, 480.5, 274.199999999999818, 480.5 ],
					"source" : [ "obj-36", 0 ]
				}

			}
, 			{
				"patchline" : 				{
					"destination" : [ "obj-5", 0 ],
					"source" : [ "obj-4", 0 ]
				}

			}
, 			{
				"patchline" : 				{
					"destination" : [ "obj-33", 2 ],
					"source" : [ "obj-40", 0 ]
				}

			}
, 			{
				"patchline" : 				{
					"destination" : [ "obj-40", 0 ],
					"source" : [ "obj-41", 0 ]
				}

			}
, 			{
				"patchline" : 				{
					"destination" : [ "obj-41", 0 ],
					"source" : [ "obj-42", 0 ]
				}

			}
, 			{
				"patchline" : 				{
					"destination" : [ "obj-42", 0 ],
					"source" : [ "obj-43", 0 ]
				}

			}
, 			{
				"patchline" : 				{
					"destination" : [ "obj-47", 0 ],
					"midpoints" : [ 971.0, 912.0, 954.249999999999886, 912.0, 954.249999999999886, 438.0, 971.0, 438.0 ],
					"source" : [ "obj-45", 0 ]
				}

			}
, 			{
				"patchline" : 				{
					"destination" : [ "obj-18", 0 ],
					"midpoints" : [ 971.0, 866.5, 652.5, 866.5 ],
					"order" : 1,
					"source" : [ "obj-46", 0 ]
				}

			}
, 			{
				"patchline" : 				{
					"destination" : [ "obj-45", 0 ],
					"order" : 0,
					"source" : [ "obj-46", 0 ]
				}

			}
, 			{
				"patchline" : 				{
					"destination" : [ "obj-46", 0 ],
					"source" : [ "obj-47", 0 ]
				}

			}
, 			{
				"patchline" : 				{
					"destination" : [ "obj-20", 0 ],
					"source" : [ "obj-48", 0 ]
				}

			}
, 			{
				"patchline" : 				{
					"destination" : [ "obj-31", 0 ],
					"midpoints" : [ 286.199999999999818, 565.25, 988.499999999999773, 565.25 ],
					"source" : [ "obj-48", 1 ]
				}

			}
, 			{
				"patchline" : 				{
					"destination" : [ "obj-50", 0 ],
					"source" : [ "obj-49", 0 ]
				}

			}
, 			{
				"patchline" : 				{
					"destination" : [ "obj-3", 0 ],
					"midpoints" : [ 251.700000000000045, 866.5, 68.5, 866.5 ],
					"order" : 1,
					"source" : [ "obj-5", 0 ]
				}

			}
, 			{
				"patchline" : 				{
					"destination" : [ "obj-7", 0 ],
					"order" : 0,
					"source" : [ "obj-5", 0 ]
				}

			}
, 			{
				"patchline" : 				{
					"destination" : [ "obj-51", 0 ],
					"source" : [ "obj-50", 0 ]
				}

			}
, 			{
				"patchline" : 				{
					"destination" : [ "obj-16", 0 ],
					"midpoints" : [ 482.5, 282.0, 523.0, 282.0, 523.0, 481.0, 766.0, 481.0, 766.0, 659.0, 784.75, 659.0 ],
					"source" : [ "obj-51", 2 ]
				}

			}
, 			{
				"patchline" : 				{
					"destination" : [ "obj-22", 0 ],
					"midpoints" : [ 296.0, 282.0, 522.0, 282.0, 522.0, 482.0, 676.0, 482.0, 676.0, 812.0, 784.700000000000045, 812.0 ],
					"source" : [ "obj-51", 1 ]
				}

			}
, 			{
				"patchline" : 				{
					"destination" : [ "obj-265", 0 ],
					"source" : [ "obj-51", 0 ]
				}

			}
, 			{
				"patchline" : 				{
					"destination" : [ "obj-52", 0 ],
					"source" : [ "obj-51", 3 ]
				}

			}
, 			{
				"patchline" : 				{
					"destination" : [ "obj-10", 0 ],
					"source" : [ "obj-52", 1 ]
				}

			}
, 			{
				"patchline" : 				{
					"destination" : [ "obj-15", 0 ],
					"midpoints" : [ 900.5, 606.0, 784.75, 606.0 ],
					"source" : [ "obj-52", 2 ]
				}

			}
, 			{
				"patchline" : 				{
					"destination" : [ "obj-19", 0 ],
					"midpoints" : [ 669.0, 281.0, 523.0, 281.0, 523.0, 482.0, 274.199999999999818, 482.0 ],
					"source" : [ "obj-52", 0 ]
				}

			}
, 			{
				"patchline" : 				{
					"destination" : [ "obj-9", 1 ],
					"source" : [ "obj-6", 0 ]
				}

			}
, 			{
				"patchline" : 				{
					"destination" : [ "obj-4", 0 ],
					"midpoints" : [ 251.700000000000045, 911.0, 236.949999999999932, 911.0, 236.949999999999932, 436.0, 251.700000000000045, 436.0 ],
					"source" : [ "obj-7", 0 ]
				}

			}
, 			{
				"patchline" : 				{
					"destination" : [ "obj-47", 0 ],
					"source" : [ "obj-8", 0 ]
				}

			}
, 			{
				"patchline" : 				{
					"destination" : [ "obj-18", 0 ],
					"source" : [ "obj-9", 0 ]
				}

			}
 ],
		"dependency_cache" : [ 			{
				"name" : "o.route.mxo",
				"type" : "iLaX"
			}
 ],
		"autosave" : 0
	}

}
