{
	"patcher" : 	{
		"fileversion" : 1,
		"appversion" : 		{
			"major" : 8,
			"minor" : 5,
			"revision" : 3,
			"architecture" : "x64",
			"modernui" : 1
		}
,
		"classnamespace" : "box",
		"rect" : [ 1474.0, -211.0, 2154.0, 1319.0 ],
		"bglocked" : 0,
		"openinpresentation" : 0,
		"default_fontsize" : 12.0,
		"default_fontface" : 0,
		"default_fontname" : "Arial",
		"gridonopen" : 1,
		"gridsize" : [ 15.0, 15.0 ],
		"gridsnaponopen" : 1,
		"objectsnaponopen" : 1,
		"statusbarvisible" : 2,
		"toolbarvisible" : 1,
		"lefttoolbarpinned" : 0,
		"toptoolbarpinned" : 0,
		"righttoolbarpinned" : 0,
		"bottomtoolbarpinned" : 0,
		"toolbars_unpinned_last_save" : 0,
		"tallnewobj" : 0,
		"boxanimatetime" : 200,
		"enablehscroll" : 1,
		"enablevscroll" : 1,
		"devicewidth" : 0.0,
		"description" : "",
		"digest" : "",
		"tags" : "",
		"style" : "",
		"subpatcher_template" : "",
		"assistshowspatchername" : 0,
		"boxes" : [ 			{
				"box" : 				{
					"id" : "obj-282",
					"maxclass" : "newobj",
					"numinlets" : 1,
					"numoutlets" : 0,
					"patching_rect" : [ 1144.750000000000227, 1064.0, 88.0, 22.0 ],
					"text" : "send~ aux-ch1"
				}

			}
, 			{
				"box" : 				{
					"fontface" : 0,
					"fontname" : "Arial",
					"fontsize" : 12.0,
					"id" : "obj-283",
					"maxclass" : "number~",
					"mode" : 2,
					"numinlets" : 2,
					"numoutlets" : 2,
					"outlettype" : [ "signal", "float" ],
					"patching_rect" : [ 1061.750000000000227, 1032.0, 56.0, 22.0 ],
					"sig" : 0.0
				}

			}
, 			{
				"box" : 				{
					"fontface" : 0,
					"fontname" : "Arial",
					"fontsize" : 12.0,
					"id" : "obj-284",
					"maxclass" : "number~",
					"mode" : 2,
					"numinlets" : 2,
					"numoutlets" : 2,
					"outlettype" : [ "signal", "float" ],
					"patching_rect" : [ 1162.750000000000227, 1032.0, 56.0, 22.0 ],
					"sig" : 0.0
				}

			}
, 			{
				"box" : 				{
					"id" : "obj-285",
					"maxclass" : "newobj",
					"numinlets" : 1,
					"numoutlets" : 2,
					"outlettype" : [ "float", "float" ],
					"patching_rect" : [ 1078.25, 919.0, 100.500000000000227, 22.0 ],
					"text" : "t f f"
				}

			}
, 			{
				"box" : 				{
					"id" : "obj-286",
					"maxclass" : "newobj",
					"numinlets" : 2,
					"numoutlets" : 1,
					"outlettype" : [ "float" ],
					"patching_rect" : [ 1078.25, 953.0, 60.5, 22.0 ],
					"text" : "!- 1."
				}

			}
, 			{
				"box" : 				{
					"id" : "obj-287",
					"maxclass" : "newobj",
					"numinlets" : 2,
					"numoutlets" : 1,
					"outlettype" : [ "signal" ],
					"patching_rect" : [ 1144.750000000000227, 998.0, 34.0, 22.0 ],
					"text" : "*~ 0."
				}

			}
, 			{
				"box" : 				{
					"id" : "obj-288",
					"maxclass" : "newobj",
					"numinlets" : 2,
					"numoutlets" : 1,
					"outlettype" : [ "signal" ],
					"patching_rect" : [ 1045.25, 998.0, 52.0, 22.0 ],
					"text" : "*~ 1."
				}

			}
, 			{
				"box" : 				{
					"floatoutput" : 1,
					"id" : "obj-289",
					"maxclass" : "dial",
					"mult" : 0.01,
					"numinlets" : 1,
					"numoutlets" : 1,
					"outlettype" : [ "float" ],
					"parameter_enable" : 0,
					"patching_rect" : [ 1078.25, 869.0, 40.0, 40.0 ],
					"size" : 100.0,
					"thickness" : 90.0
				}

			}
, 			{
				"box" : 				{
					"format" : 6,
					"id" : "obj-281",
					"maxclass" : "flonum",
					"numinlets" : 1,
					"numoutlets" : 2,
					"outlettype" : [ "", "bang" ],
					"parameter_enable" : 0,
					"patching_rect" : [ 2103.5, 1581.0, 50.0, 22.0 ]
				}

			}
, 			{
				"box" : 				{
					"id" : "obj-279",
					"maxclass" : "newobj",
					"numinlets" : 2,
					"numoutlets" : 1,
					"outlettype" : [ "signal" ],
					"patching_rect" : [ 2033.0, 1614.0, 89.5, 22.0 ],
					"text" : "*~"
				}

			}
, 			{
				"box" : 				{
					"id" : "obj-278",
					"maxclass" : "newobj",
					"numinlets" : 1,
					"numoutlets" : 1,
					"outlettype" : [ "signal" ],
					"patching_rect" : [ 2033.0, 1470.0, 100.0, 22.0 ],
					"text" : "receive~ aux-ch1"
				}

			}
, 			{
				"box" : 				{
					"id" : "obj-277",
					"maxclass" : "newobj",
					"numinlets" : 1,
					"numoutlets" : 0,
					"patching_rect" : [ 516.0, 1064.0, 88.0, 22.0 ],
					"text" : "send~ aux-ch1"
				}

			}
, 			{
				"box" : 				{
					"fontface" : 0,
					"fontname" : "Arial",
					"fontsize" : 12.0,
					"id" : "obj-276",
					"maxclass" : "number~",
					"mode" : 2,
					"numinlets" : 2,
					"numoutlets" : 2,
					"outlettype" : [ "signal", "float" ],
					"patching_rect" : [ 433.0, 1032.0, 56.0, 22.0 ],
					"sig" : 0.0
				}

			}
, 			{
				"box" : 				{
					"fontface" : 0,
					"fontname" : "Arial",
					"fontsize" : 12.0,
					"id" : "obj-275",
					"maxclass" : "number~",
					"mode" : 2,
					"numinlets" : 2,
					"numoutlets" : 2,
					"outlettype" : [ "signal", "float" ],
					"patching_rect" : [ 534.0, 1032.0, 56.0, 22.0 ],
					"sig" : 0.0
				}

			}
, 			{
				"box" : 				{
					"id" : "obj-274",
					"maxclass" : "newobj",
					"numinlets" : 1,
					"numoutlets" : 2,
					"outlettype" : [ "float", "float" ],
					"patching_rect" : [ 449.499999999999773, 919.0, 100.500000000000227, 22.0 ],
					"text" : "t f f"
				}

			}
, 			{
				"box" : 				{
					"id" : "obj-270",
					"maxclass" : "newobj",
					"numinlets" : 2,
					"numoutlets" : 1,
					"outlettype" : [ "float" ],
					"patching_rect" : [ 449.499999999999773, 953.0, 60.5, 22.0 ],
					"text" : "!- 1."
				}

			}
, 			{
				"box" : 				{
					"id" : "obj-269",
					"maxclass" : "newobj",
					"numinlets" : 2,
					"numoutlets" : 1,
					"outlettype" : [ "signal" ],
					"patching_rect" : [ 516.0, 998.0, 34.0, 22.0 ],
					"text" : "*~ 0."
				}

			}
, 			{
				"box" : 				{
					"id" : "obj-268",
					"maxclass" : "newobj",
					"numinlets" : 2,
					"numoutlets" : 1,
					"outlettype" : [ "signal" ],
					"patching_rect" : [ 416.499999999999773, 998.0, 52.0, 22.0 ],
					"text" : "*~ 1."
				}

			}
, 			{
				"box" : 				{
					"floatoutput" : 1,
					"id" : "obj-265",
					"maxclass" : "dial",
					"mult" : 0.01,
					"numinlets" : 1,
					"numoutlets" : 1,
					"outlettype" : [ "float" ],
					"parameter_enable" : 0,
					"patching_rect" : [ 449.499999999999773, 869.0, 40.0, 40.0 ],
					"size" : 100.0,
					"thickness" : 90.0
				}

			}
, 			{
				"box" : 				{
					"id" : "obj-259",
					"maxclass" : "newobj",
					"numinlets" : 1,
					"numoutlets" : 1,
					"outlettype" : [ "signal" ],
					"patching_rect" : [ 1761.0, 1384.75, 117.0, 22.0 ],
					"text" : "receive~ aux-mixer1"
				}

			}
, 			{
				"box" : 				{
					"id" : "obj-258",
					"maxclass" : "newobj",
					"numinlets" : 1,
					"numoutlets" : 0,
					"patching_rect" : [ 2033.0, 1647.529437780380249, 104.0, 22.0 ],
					"text" : "send~ aux-mixer1"
				}

			}
, 			{
				"box" : 				{
					"id" : "obj-252",
					"maxclass" : "meter~",
					"numinlets" : 1,
					"numleds" : 20,
					"numoutlets" : 1,
					"outlettype" : [ "float" ],
					"patching_rect" : [ 1393.0, 1455.0, 33.0, 103.0 ]
				}

			}
, 			{
				"box" : 				{
					"id" : "obj-251",
					"maxclass" : "meter~",
					"nhotleds" : 2,
					"numinlets" : 1,
					"numleds" : 20,
					"numoutlets" : 1,
					"outlettype" : [ "float" ],
					"patching_rect" : [ 1112.0, 1455.0, 33.0, 103.0 ]
				}

			}
, 			{
				"box" : 				{
					"attr" : "damp",
					"id" : "obj-232",
					"maxclass" : "attrui",
					"numinlets" : 1,
					"numoutlets" : 1,
					"outlettype" : [ "" ],
					"parameter_enable" : 0,
					"patching_rect" : [ 2280.66666666666606, 1464.25, 231.0, 22.0 ]
				}

			}
, 			{
				"box" : 				{
					"id" : "obj-229",
					"maxclass" : "newobj",
					"numinlets" : 1,
					"numoutlets" : 1,
					"outlettype" : [ "signal" ],
					"patching_rect" : [ 2033.0, 1513.5, 161.0, 22.0 ],
					"text" : "gen~ @gen freeverb.gendsp"
				}

			}
, 			{
				"box" : 				{
					"id" : "obj-224",
					"maxclass" : "newobj",
					"numinlets" : 5,
					"numoutlets" : 2,
					"outlettype" : [ "signal", "signal" ],
					"patching_rect" : [ 416.499999999999773, 1233.0, 191.0, 22.0 ],
					"text" : "yafr2"
				}

			}
, 			{
				"box" : 				{
					"id" : "obj-209",
					"maxclass" : "newobj",
					"numinlets" : 0,
					"numoutlets" : 0,
					"patcher" : 					{
						"fileversion" : 1,
						"appversion" : 						{
							"major" : 8,
							"minor" : 5,
							"revision" : 3,
							"architecture" : "x64",
							"modernui" : 1
						}
,
						"classnamespace" : "box",
						"rect" : [ 2117.0, 7.0, 1198.0, 966.0 ],
						"bglocked" : 0,
						"openinpresentation" : 0,
						"default_fontsize" : 12.0,
						"default_fontface" : 0,
						"default_fontname" : "Arial",
						"gridonopen" : 1,
						"gridsize" : [ 15.0, 15.0 ],
						"gridsnaponopen" : 1,
						"objectsnaponopen" : 1,
						"statusbarvisible" : 2,
						"toolbarvisible" : 1,
						"lefttoolbarpinned" : 0,
						"toptoolbarpinned" : 0,
						"righttoolbarpinned" : 0,
						"bottomtoolbarpinned" : 0,
						"toolbars_unpinned_last_save" : 0,
						"tallnewobj" : 0,
						"boxanimatetime" : 200,
						"enablehscroll" : 1,
						"enablevscroll" : 1,
						"devicewidth" : 0.0,
						"description" : "",
						"digest" : "",
						"tags" : "",
						"style" : "",
						"subpatcher_template" : "",
						"assistshowspatchername" : 0,
						"boxes" : [ 							{
								"box" : 								{
									"id" : "obj-9",
									"maxclass" : "newobj",
									"numinlets" : 2,
									"numoutlets" : 1,
									"outlettype" : [ "FullPacket" ],
									"patching_rect" : [ 50.499999999999773, 388.0, 242.0, 22.0 ],
									"text" : "o.union"
								}

							}
, 							{
								"box" : 								{
									"id" : "obj-1",
									"maxclass" : "newobj",
									"numinlets" : 1,
									"numoutlets" : 2,
									"outlettype" : [ "", "FullPacket" ],
									"patching_rect" : [ 273.499999999999773, 348.0, 143.0, 22.0 ],
									"text" : "o.select /num_on_screen"
								}

							}
, 							{
								"box" : 								{
									"id" : "obj-69",
									"maxclass" : "newobj",
									"numinlets" : 0,
									"numoutlets" : 1,
									"outlettype" : [ "" ],
									"patching_rect" : [ 273.499999999999773, 316.0, 81.0, 22.0 ],
									"text" : "r enemy-stats"
								}

							}
, 							{
								"box" : 								{
									"id" : "obj-208",
									"maxclass" : "newobj",
									"numinlets" : 2,
									"numoutlets" : 1,
									"outlettype" : [ "FullPacket" ],
									"patching_rect" : [ 50.0, 243.0, 102.499999999999773, 22.0 ],
									"text" : "o.union"
								}

							}
, 							{
								"box" : 								{
									"id" : "obj-201",
									"maxclass" : "newobj",
									"numinlets" : 1,
									"numoutlets" : 0,
									"patching_rect" : [ 172.499999999999773, 889.602970480918884, 92.0, 22.0 ],
									"text" : "s transport-msg"
								}

							}
, 							{
								"box" : 								{
									"id" : "obj-195",
									"maxclass" : "newobj",
									"numinlets" : 1,
									"numoutlets" : 2,
									"outlettype" : [ "", "FullPacket" ],
									"patching_rect" : [ 172.499999999999773, 754.529437780380249, 101.0, 22.0 ],
									"text" : "o.route /line_msg"
								}

							}
, 							{
								"box" : 								{
									"id" : "obj-194",
									"maxclass" : "message",
									"numinlets" : 2,
									"numoutlets" : 1,
									"outlettype" : [ "" ],
									"patching_rect" : [ 172.499999999999773, 789.102970480918884, 59.0, 22.0 ],
									"text" : "$1, $2 $3"
								}

							}
, 							{
								"box" : 								{
									"id" : "obj-193",
									"maxclass" : "message",
									"numinlets" : 2,
									"numoutlets" : 1,
									"outlettype" : [ "" ],
									"patching_rect" : [ 172.499999999999773, 856.102970480918884, 59.0, 22.0 ],
									"text" : "tempo $1"
								}

							}
, 							{
								"box" : 								{
									"id" : "obj-191",
									"maxclass" : "newobj",
									"numinlets" : 3,
									"numoutlets" : 2,
									"outlettype" : [ "", "bang" ],
									"patching_rect" : [ 172.499999999999773, 823.102970480918884, 56.5, 22.0 ],
									"text" : "line 1."
								}

							}
, 							{
								"box" : 								{
									"fontface" : 0,
									"id" : "obj-190",
									"maxclass" : "o.expr.codebox",
									"numinlets" : 1,
									"numoutlets" : 2,
									"outlettype" : [ "FullPacket", "FullPacket" ],
									"patching_rect" : [ 172.499999999999773, 707.529437780380249, 358.0, 31.0 ],
									"text" : "/line_msg = [/tempo/bpm, /tempo/new_bpm, /ramp_time]"
								}

							}
, 							{
								"box" : 								{
									"id" : "obj-187",
									"maxclass" : "newobj",
									"numinlets" : 1,
									"numoutlets" : 2,
									"outlettype" : [ "FullPacket", "FullPacket" ],
									"patching_rect" : [ 172.499999999999773, 679.529437780380249, 200.0, 22.0 ],
									"text" : "o.if /tempo/new_bpm != /tempo/bpm"
								}

							}
, 							{
								"box" : 								{
									"id" : "obj-178",
									"maxclass" : "newobj",
									"numinlets" : 1,
									"numoutlets" : 2,
									"outlettype" : [ "", "FullPacket" ],
									"patching_rect" : [ 79.499999999999773, 313.0, 117.0, 22.0 ],
									"text" : "o.select /tempo/bpm"
								}

							}
, 							{
								"box" : 								{
									"id" : "obj-175",
									"maxclass" : "newobj",
									"numinlets" : 1,
									"numoutlets" : 3,
									"outlettype" : [ "", "", "FullPacket" ],
									"patching_rect" : [ 50.499999999999773, 206.470562219619751, 185.0, 22.0 ],
									"text" : "o.select /curr_health /max_health"
								}

							}
, 							{
								"box" : 								{
									"id" : "obj-174",
									"maxclass" : "newobj",
									"numinlets" : 0,
									"numoutlets" : 1,
									"outlettype" : [ "" ],
									"patching_rect" : [ 50.499999999999773, 169.470562219619751, 78.0, 22.0 ],
									"text" : "r player-stats"
								}

							}
, 							{
								"box" : 								{
									"id" : "obj-173",
									"maxclass" : "newobj",
									"numinlets" : 1,
									"numoutlets" : 2,
									"outlettype" : [ "", "FullPacket" ],
									"patching_rect" : [ 50.499999999999773, 629.911815166473389, 141.0, 22.0 ],
									"text" : "o.select /previous_health"
								}

							}
, 							{
								"box" : 								{
									"id" : "obj-172",
									"maxclass" : "newobj",
									"numinlets" : 2,
									"numoutlets" : 1,
									"outlettype" : [ "FullPacket" ],
									"patching_rect" : [ 50.499999999999773, 427.529437780380249, 484.0, 22.0 ],
									"text" : "o.union"
								}

							}
, 							{
								"box" : 								{
									"id" : "obj-171",
									"maxclass" : "newobj",
									"numinlets" : 2,
									"numoutlets" : 1,
									"outlettype" : [ "FullPacket" ],
									"patching_rect" : [ 50.499999999999773, 348.0, 48.0, 22.0 ],
									"text" : "o.union"
								}

							}
, 							{
								"box" : 								{
									"id" : "obj-170",
									"maxclass" : "newobj",
									"numinlets" : 0,
									"numoutlets" : 1,
									"outlettype" : [ "" ],
									"patching_rect" : [ 79.499999999999773, 278.088210701942444, 89.0, 22.0 ],
									"text" : "r transport-vals"
								}

							}
, 							{
								"box" : 								{
									"fontface" : 0,
									"id" : "obj-168",
									"linecount" : 11,
									"maxclass" : "o.expr.codebox",
									"numinlets" : 1,
									"numoutlets" : 2,
									"outlettype" : [ "FullPacket", "FullPacket" ],
									"patching_rect" : [ 50.499999999999773, 460.779437780380249, 495.0, 159.0 ],
									"text" : "/tempo_adjustment/bpm ??= 2,\n/tempo_adjustment/ramp ??= 1000,\n/previous_health ??= /max_health,\n\n# change ramp time based on number of enemies\n/ramp_delta = scale(/num_on_screen, 0, 10, 500, -500),\n\n/health_diff = /previous_health - /curr_health,\n/tempo/new_bpm = /tempo/bpm + (/health_diff * /tempo_adjustment/bpm),\n/ramp_time = abs(/health_diff * (/tempo_adjustment/ramp + /ramp_delta)),\n/previous_health = /curr_health"
								}

							}
 ],
						"lines" : [ 							{
								"patchline" : 								{
									"destination" : [ "obj-9", 1 ],
									"source" : [ "obj-1", 0 ]
								}

							}
, 							{
								"patchline" : 								{
									"destination" : [ "obj-173", 0 ],
									"source" : [ "obj-168", 0 ]
								}

							}
, 							{
								"patchline" : 								{
									"destination" : [ "obj-178", 0 ],
									"source" : [ "obj-170", 0 ]
								}

							}
, 							{
								"patchline" : 								{
									"destination" : [ "obj-9", 0 ],
									"source" : [ "obj-171", 0 ]
								}

							}
, 							{
								"patchline" : 								{
									"destination" : [ "obj-168", 0 ],
									"source" : [ "obj-172", 0 ]
								}

							}
, 							{
								"patchline" : 								{
									"destination" : [ "obj-172", 1 ],
									"midpoints" : [ 59.999999999999773, 662.911815166473389, 595.499999999999773, 662.911815166473389, 595.499999999999773, 416.529437780380249, 524.999999999999773, 416.529437780380249 ],
									"source" : [ "obj-173", 0 ]
								}

							}
, 							{
								"patchline" : 								{
									"destination" : [ "obj-187", 0 ],
									"source" : [ "obj-173", 1 ]
								}

							}
, 							{
								"patchline" : 								{
									"destination" : [ "obj-175", 0 ],
									"source" : [ "obj-174", 0 ]
								}

							}
, 							{
								"patchline" : 								{
									"destination" : [ "obj-208", 1 ],
									"source" : [ "obj-175", 1 ]
								}

							}
, 							{
								"patchline" : 								{
									"destination" : [ "obj-208", 0 ],
									"source" : [ "obj-175", 0 ]
								}

							}
, 							{
								"patchline" : 								{
									"destination" : [ "obj-171", 1 ],
									"source" : [ "obj-178", 0 ]
								}

							}
, 							{
								"patchline" : 								{
									"destination" : [ "obj-190", 0 ],
									"source" : [ "obj-187", 0 ]
								}

							}
, 							{
								"patchline" : 								{
									"destination" : [ "obj-195", 0 ],
									"source" : [ "obj-190", 0 ]
								}

							}
, 							{
								"patchline" : 								{
									"destination" : [ "obj-193", 0 ],
									"source" : [ "obj-191", 0 ]
								}

							}
, 							{
								"patchline" : 								{
									"destination" : [ "obj-201", 0 ],
									"source" : [ "obj-193", 0 ]
								}

							}
, 							{
								"patchline" : 								{
									"destination" : [ "obj-191", 0 ],
									"source" : [ "obj-194", 0 ]
								}

							}
, 							{
								"patchline" : 								{
									"destination" : [ "obj-194", 0 ],
									"source" : [ "obj-195", 0 ]
								}

							}
, 							{
								"patchline" : 								{
									"destination" : [ "obj-171", 0 ],
									"source" : [ "obj-208", 0 ]
								}

							}
, 							{
								"patchline" : 								{
									"destination" : [ "obj-1", 0 ],
									"source" : [ "obj-69", 0 ]
								}

							}
, 							{
								"patchline" : 								{
									"destination" : [ "obj-172", 0 ],
									"source" : [ "obj-9", 0 ]
								}

							}
 ]
					}
,
					"patching_rect" : [ 5.0, 747.470561999999973, 151.0, 22.0 ],
					"saved_object_attributes" : 					{
						"description" : "",
						"digest" : "",
						"globalpatchername" : "",
						"tags" : ""
					}
,
					"text" : "p health-tempo-modulation"
				}

			}
, 			{
				"box" : 				{
					"id" : "obj-203",
					"maxclass" : "message",
					"numinlets" : 2,
					"numoutlets" : 1,
					"outlettype" : [ "" ],
					"patching_rect" : [ 669.405092000961304, 1594.25, 65.0, 22.0 ],
					"text" : "tempo 130"
				}

			}
, 			{
				"box" : 				{
					"fontface" : 0,
					"id" : "obj-159",
					"linecount" : 17,
					"maxclass" : "o.display",
					"numinlets" : 1,
					"numoutlets" : 1,
					"outlettype" : [ "" ],
					"patching_rect" : [ 2085.66666666666606, 1007.25, 150.0, 238.0 ],
					"text" : "/pattern/sustain : [0, 0, 0, 1, 0, 0, 2, 0, 0, 3, 0, 0, 4, 0, 0, 5, 0, 0, 6, 0, 0, 7, 0, 1, 8, 0, 0, 9, 0, 0, 10, 0, 0, 11, 0, 0, 12, 0, 0, 13, 0, 0, 14, 0, 0, 15, 0, 0, 16, 0, 0, 17, 0, 0, 18, 0, 0, 19, 0, 0, 20, 0, 0, 21, 0, 0, 22, 0, 0, 23, 0, 0, 24, 0, 0, 25, 0, 0, 26, 0, 0, 27, 0, 1, 28, 0, 0, 29, 0, 0, 30, 0, 0, 31, 0, 0]"
				}

			}
, 			{
				"box" : 				{
					"id" : "obj-155",
					"maxclass" : "message",
					"numinlets" : 2,
					"numoutlets" : 1,
					"outlettype" : [ "" ],
					"patching_rect" : [ 1585.999999999999545, 953.0, 50.0, 22.0 ],
					"presentation_linecount" : 3,
					"text" : "compile"
				}

			}
, 			{
				"box" : 				{
					"id" : "obj-153",
					"maxclass" : "button",
					"numinlets" : 1,
					"numoutlets" : 1,
					"outlettype" : [ "bang" ],
					"parameter_enable" : 0,
					"patching_rect" : [ 1702.559523809523398, 1076.0, 24.0, 24.0 ]
				}

			}
, 			{
				"box" : 				{
					"id" : "obj-145",
					"maxclass" : "newobj",
					"numinlets" : 1,
					"numoutlets" : 1,
					"outlettype" : [ "" ],
					"patching_rect" : [ 1636.5, 1076.0, 53.0, 22.0 ],
					"text" : "o.collect"
				}

			}
, 			{
				"box" : 				{
					"id" : "obj-144",
					"maxclass" : "newobj",
					"numinlets" : 1,
					"numoutlets" : 1,
					"outlettype" : [ "FullPacket" ],
					"patching_rect" : [ 1636.5, 1032.0, 129.0, 22.0 ],
					"text" : "o.pack /pattern/sustain"
				}

			}
, 			{
				"box" : 				{
					"id" : "obj-141",
					"maxclass" : "newobj",
					"numinlets" : 1,
					"numoutlets" : 4,
					"outlettype" : [ "", "", "", "FullPacket" ],
					"patching_rect" : [ 1636.5, 902.5, 259.0, 22.0 ],
					"text" : "o.route /sustain /values /length"
				}

			}
, 			{
				"box" : 				{
					"id" : "obj-137",
					"maxclass" : "newobj",
					"numinlets" : 1,
					"numoutlets" : 2,
					"outlettype" : [ "", "FullPacket" ],
					"patching_rect" : [ 1636.5, 868.0, 145.0, 22.0 ],
					"text" : "o.route /pattern/sequence"
				}

			}
, 			{
				"box" : 				{
					"id" : "obj-127",
					"maxclass" : "message",
					"numinlets" : 2,
					"numoutlets" : 1,
					"outlettype" : [ "" ],
					"patching_rect" : [ 1796.5, 953.0, 29.5, 22.0 ],
					"text" : "0.8"
				}

			}
, 			{
				"box" : 				{
					"id" : "obj-108",
					"maxclass" : "newobj",
					"numinlets" : 3,
					"numoutlets" : 1,
					"outlettype" : [ "" ],
					"patching_rect" : [ 1636.5, 989.0, 179.0, 22.0 ],
					"saved_object_attributes" : 					{
						"filename" : "sustainmodifier.js",
						"parameter_enable" : 0
					}
,
					"text" : "js sustainmodifier.js"
				}

			}
, 			{
				"box" : 				{
					"fontface" : 0,
					"id" : "obj-89",
					"maxclass" : "o.compose",
					"numinlets" : 2,
					"numoutlets" : 1,
					"outlettype" : [ "" ],
					"patching_rect" : [ 2339.0, 31.470562219619751, 150.0, 23.0 ],
					"saved_bundle_data" : [ 35, 98, 117, 110, 100, 108, 101, 0, 0, 0, 0, 0, 0, 0, 0, 0, 0, 0, 0, 24, 47, 112, 97, 116, 116, 101, 114, 110, 47, 107, 101, 121, 0, 0, 0, 0, 44, 105, 0, 0, 0, 0, 0, 7 ],
					"saved_bundle_length" : 44,
					"text" : "/pattern/key : 7"
				}

			}
, 			{
				"box" : 				{
					"fontface" : 0,
					"id" : "obj-88",
					"maxclass" : "o.compose",
					"numinlets" : 2,
					"numoutlets" : 1,
					"outlettype" : [ "" ],
					"patching_rect" : [ 1394.0, 47.735265254974365, 150.0, 23.0 ],
					"saved_bundle_data" : [ 35, 98, 117, 110, 100, 108, 101, 0, 0, 0, 0, 0, 0, 0, 0, 0, 0, 0, 0, 24, 47, 112, 97, 116, 116, 101, 114, 110, 47, 107, 101, 121, 0, 0, 0, 0, 44, 105, 0, 0, 0, 0, 0, 7 ],
					"saved_bundle_length" : 44,
					"text" : "/pattern/key : 7"
				}

			}
, 			{
				"box" : 				{
					"fontface" : 0,
					"id" : "obj-87",
					"maxclass" : "o.compose",
					"numinlets" : 2,
					"numoutlets" : 1,
					"outlettype" : [ "" ],
					"patching_rect" : [ 863.0, 42.0, 150.0, 23.0 ],
					"saved_bundle_data" : [ 35, 98, 117, 110, 100, 108, 101, 0, 0, 0, 0, 0, 0, 0, 0, 0, 0, 0, 0, 24, 47, 112, 97, 116, 116, 101, 114, 110, 47, 107, 101, 121, 0, 0, 0, 0, 44, 105, 0, 0, 0, 0, 0, 7 ],
					"saved_bundle_length" : 44,
					"text" : "/pattern/key : 7"
				}

			}
, 			{
				"box" : 				{
					"id" : "obj-47",
					"maxclass" : "newobj",
					"numinlets" : 1,
					"numoutlets" : 1,
					"outlettype" : [ "bang" ],
					"patching_rect" : [ 2155.952380952380736, 3.470562219619751, 58.0, 22.0 ],
					"text" : "loadbang"
				}

			}
, 			{
				"box" : 				{
					"id" : "obj-51",
					"maxclass" : "newobj",
					"numinlets" : 2,
					"numoutlets" : 1,
					"outlettype" : [ "FullPacket" ],
					"patching_rect" : [ 2030.166666666666288, 62.470562219619751, 144.785714285714221, 22.0 ],
					"text" : "o.union"
				}

			}
, 			{
				"box" : 				{
					"fontface" : 0,
					"id" : "obj-55",
					"maxclass" : "o.compose",
					"numinlets" : 2,
					"numoutlets" : 1,
					"outlettype" : [ "" ],
					"patching_rect" : [ 2155.952380952380736, 31.470562219619751, 162.999999999999773, 23.0 ],
					"presentation_linecount" : 2,
					"saved_bundle_data" : [ 35, 98, 117, 110, 100, 108, 101, 0, 0, 0, 0, 0, 0, 0, 0, 0, 0, 0, 0, 24, 47, 116, 101, 109, 112, 111, 47, 98, 101, 97, 116, 95, 100, 105, 118, 0, 44, 105, 0, 0, 0, 0, 0, 16 ],
					"saved_bundle_length" : 44,
					"text" : "/tempo/beat_div : 16"
				}

			}
, 			{
				"box" : 				{
					"id" : "obj-57",
					"maxclass" : "newobj",
					"numinlets" : 0,
					"numoutlets" : 1,
					"outlettype" : [ "" ],
					"patching_rect" : [ 2030.166666666666288, 31.470562219619751, 89.0, 22.0 ],
					"text" : "r transport-vals"
				}

			}
, 			{
				"box" : 				{
					"id" : "obj-38",
					"maxclass" : "newobj",
					"numinlets" : 1,
					"numoutlets" : 1,
					"outlettype" : [ "bang" ],
					"patching_rect" : [ 1214.598214285714221, -1.176524043083191, 58.0, 22.0 ],
					"text" : "loadbang"
				}

			}
, 			{
				"box" : 				{
					"id" : "obj-39",
					"maxclass" : "newobj",
					"numinlets" : 2,
					"numoutlets" : 1,
					"outlettype" : [ "FullPacket" ],
					"patching_rect" : [ 1119.8125, 59.823475956916809, 113.785714285714221, 22.0 ],
					"text" : "o.union"
				}

			}
, 			{
				"box" : 				{
					"fontface" : 0,
					"id" : "obj-42",
					"maxclass" : "o.compose",
					"numinlets" : 2,
					"numoutlets" : 1,
					"outlettype" : [ "" ],
					"patching_rect" : [ 1214.598214285714221, 28.823475956916809, 159.0, 23.0 ],
					"presentation_linecount" : 2,
					"saved_bundle_data" : [ 35, 98, 117, 110, 100, 108, 101, 0, 0, 0, 0, 0, 0, 0, 0, 0, 0, 0, 0, 24, 47, 116, 101, 109, 112, 111, 47, 98, 101, 97, 116, 95, 100, 105, 118, 0, 44, 105, 0, 0, 0, 0, 0, 16 ],
					"saved_bundle_length" : 44,
					"text" : "/tempo/beat_div : 16"
				}

			}
, 			{
				"box" : 				{
					"id" : "obj-46",
					"maxclass" : "newobj",
					"numinlets" : 0,
					"numoutlets" : 1,
					"outlettype" : [ "" ],
					"patching_rect" : [ 1119.8125, 28.823475956916809, 89.0, 22.0 ],
					"text" : "r transport-vals"
				}

			}
, 			{
				"box" : 				{
					"id" : "obj-37",
					"maxclass" : "newobj",
					"numinlets" : 1,
					"numoutlets" : 1,
					"outlettype" : [ "bang" ],
					"patching_rect" : [ 616.160714285713993, 0.823475956916809, 58.0, 22.0 ],
					"text" : "loadbang"
				}

			}
, 			{
				"box" : 				{
					"id" : "obj-36",
					"maxclass" : "newobj",
					"numinlets" : 2,
					"numoutlets" : 1,
					"outlettype" : [ "FullPacket" ],
					"patching_rect" : [ 490.374999999999773, 59.823475956916809, 144.785714285714221, 22.0 ],
					"text" : "o.union"
				}

			}
, 			{
				"box" : 				{
					"id" : "obj-34",
					"maxclass" : "newobj",
					"numinlets" : 1,
					"numoutlets" : 1,
					"outlettype" : [ "bang" ],
					"patching_rect" : [ 5.0, 576.0, 58.0, 22.0 ],
					"text" : "loadbang"
				}

			}
, 			{
				"box" : 				{
					"fontface" : 0,
					"id" : "obj-33",
					"maxclass" : "o.compose",
					"numinlets" : 2,
					"numoutlets" : 1,
					"outlettype" : [ "" ],
					"patching_rect" : [ 616.160714285713993, 28.823475956916809, 150.0, 23.0 ],
					"saved_bundle_data" : [ 35, 98, 117, 110, 100, 108, 101, 0, 0, 0, 0, 0, 0, 0, 0, 0, 0, 0, 0, 24, 47, 116, 101, 109, 112, 111, 47, 98, 101, 97, 116, 95, 100, 105, 118, 0, 44, 105, 0, 0, 0, 0, 0, 8 ],
					"saved_bundle_length" : 44,
					"text" : "/tempo/beat_div : 8"
				}

			}
, 			{
				"box" : 				{
					"id" : "obj-115",
					"maxclass" : "message",
					"numinlets" : 2,
					"numoutlets" : 1,
					"outlettype" : [ "" ],
					"patching_rect" : [ 1089.0, 1187.0, 35.0, 22.0 ],
					"text" : "clear"
				}

			}
, 			{
				"box" : 				{
					"id" : "obj-109",
					"maxclass" : "newobj",
					"numinlets" : 1,
					"numoutlets" : 1,
					"outlettype" : [ "signal" ],
					"patching_rect" : [ 1536.999999999999773, 1384.75, 94.0, 22.0 ],
					"text" : "receive~ mixer3"
				}

			}
, 			{
				"box" : 				{
					"id" : "obj-106",
					"maxclass" : "newobj",
					"numinlets" : 1,
					"numoutlets" : 1,
					"outlettype" : [ "signal" ],
					"patching_rect" : [ 1313.0, 1384.75, 94.0, 22.0 ],
					"text" : "receive~ mixer2"
				}

			}
, 			{
				"box" : 				{
					"id" : "obj-104",
					"maxclass" : "newobj",
					"numinlets" : 1,
					"numoutlets" : 1,
					"outlettype" : [ "signal" ],
					"patching_rect" : [ 1112.0, 1384.75, 94.0, 22.0 ],
					"text" : "receive~ mixer1"
				}

			}
, 			{
				"box" : 				{
					"id" : "obj-103",
					"maxclass" : "newobj",
					"numinlets" : 1,
					"numoutlets" : 0,
					"patching_rect" : [ 1931.999999999998181, 868.0, 81.0, 22.0 ],
					"text" : "send~ mixer3"
				}

			}
, 			{
				"box" : 				{
					"id" : "obj-102",
					"maxclass" : "newobj",
					"numinlets" : 1,
					"numoutlets" : 0,
					"patching_rect" : [ 1045.25, 1064.0, 81.0, 22.0 ],
					"text" : "send~ mixer2"
				}

			}
, 			{
				"box" : 				{
					"columns" : 4,
					"dialmode" : 2,
					"id" : "obj-101",
					"maxclass" : "matrixctrl",
					"numinlets" : 1,
					"numoutlets" : 2,
					"outlettype" : [ "list", "list" ],
					"parameter_enable" : 0,
					"patching_rect" : [ 1089.0, 1221.88237738609314, 280.0, 139.0 ],
					"rows" : 2,
					"varname" : "GlobalMixer"
				}

			}
, 			{
				"box" : 				{
					"fontface" : 0,
					"fontname" : "Arial",
					"fontsize" : 12.0,
					"id" : "obj-67",
					"maxclass" : "number~",
					"mode" : 2,
					"numinlets" : 2,
					"numoutlets" : 2,
					"outlettype" : [ "signal", "float" ],
					"patching_rect" : [ 1350.0, 1776.25, 56.0, 22.0 ],
					"sig" : 0.0
				}

			}
, 			{
				"box" : 				{
					"fontface" : 0,
					"fontname" : "Arial",
					"fontsize" : 12.0,
					"id" : "obj-64",
					"maxclass" : "number~",
					"mode" : 2,
					"numinlets" : 2,
					"numoutlets" : 2,
					"outlettype" : [ "signal", "float" ],
					"patching_rect" : [ 1292.333333333333258, 1819.25, 56.0, 22.0 ],
					"sig" : 0.0
				}

			}
, 			{
				"box" : 				{
					"id" : "obj-58",
					"maxclass" : "newobj",
					"numinlets" : 2,
					"numoutlets" : 1,
					"outlettype" : [ "signal" ],
					"patching_rect" : [ 1292.333333333333258, 1776.25, 43.0, 22.0 ],
					"text" : "+~ 0.5"
				}

			}
, 			{
				"box" : 				{
					"id" : "obj-54",
					"maxclass" : "newobj",
					"numinlets" : 2,
					"numoutlets" : 1,
					"outlettype" : [ "signal" ],
					"patching_rect" : [ 1292.333333333333258, 1732.25, 40.0, 22.0 ],
					"text" : "*~ 0.2"
				}

			}
, 			{
				"box" : 				{
					"id" : "obj-48",
					"maxclass" : "newobj",
					"numinlets" : 2,
					"numoutlets" : 1,
					"outlettype" : [ "signal" ],
					"patching_rect" : [ 1292.333333333333258, 1692.25, 63.0, 22.0 ],
					"text" : "cycle~ 0.1"
				}

			}
, 			{
				"box" : 				{
					"id" : "obj-76",
					"maxclass" : "newobj",
					"numinlets" : 4,
					"numoutlets" : 3,
					"outlettype" : [ "signal", "signal", "" ],
					"patching_rect" : [ 1089.0, 1421.25, 691.0, 22.0 ],
					"text" : "matrix~ 4 2"
				}

			}
, 			{
				"box" : 				{
					"id" : "obj-69",
					"maxclass" : "newobj",
					"numinlets" : 1,
					"numoutlets" : 0,
					"patching_rect" : [ 108.333333333333314, 241.882351517677307, 83.0, 22.0 ],
					"text" : "s enemy-stats"
				}

			}
, 			{
				"box" : 				{
					"id" : "obj-66",
					"maxclass" : "newobj",
					"numinlets" : 0,
					"numoutlets" : 1,
					"outlettype" : [ "" ],
					"patching_rect" : [ 2152.875000000001819, 93.470562219619751, 69.0, 22.0 ],
					"text" : "r scale-vals"
				}

			}
, 			{
				"box" : 				{
					"id" : "obj-65",
					"maxclass" : "newobj",
					"numinlets" : 0,
					"numoutlets" : 1,
					"outlettype" : [ "" ],
					"patching_rect" : [ 1341.25, 93.470562219619751, 69.0, 22.0 ],
					"text" : "r scale-vals"
				}

			}
, 			{
				"box" : 				{
					"id" : "obj-63",
					"maxclass" : "newobj",
					"numinlets" : 0,
					"numoutlets" : 1,
					"outlettype" : [ "" ],
					"patching_rect" : [ 638.124999999999886, 93.558772921562195, 69.0, 22.0 ],
					"text" : "r scale-vals"
				}

			}
, 			{
				"box" : 				{
					"id" : "obj-60",
					"maxclass" : "newobj",
					"numinlets" : 0,
					"numoutlets" : 1,
					"outlettype" : [ "" ],
					"patching_rect" : [ 490.374999999999773, 28.823475956916809, 89.0, 22.0 ],
					"text" : "r transport-vals"
				}

			}
, 			{
				"box" : 				{
					"id" : "obj-52",
					"maxclass" : "newobj",
					"numinlets" : 0,
					"numoutlets" : 1,
					"outlettype" : [ "" ],
					"patching_rect" : [ 1931.999999999998181, 93.470562219619751, 85.0, 22.0 ],
					"text" : "r global-toggle"
				}

			}
, 			{
				"box" : 				{
					"id" : "obj-50",
					"maxclass" : "newobj",
					"numinlets" : 0,
					"numoutlets" : 1,
					"outlettype" : [ "" ],
					"patching_rect" : [ 1046.0, 93.470562219619751, 85.0, 22.0 ],
					"text" : "r global-toggle"
				}

			}
, 			{
				"box" : 				{
					"id" : "obj-49",
					"maxclass" : "newobj",
					"numinlets" : 1,
					"numoutlets" : 0,
					"patching_rect" : [ 5.0, 688.0, 71.0, 22.0 ],
					"text" : "s scale-vals"
				}

			}
, 			{
				"box" : 				{
					"fontface" : 0,
					"id" : "obj-45",
					"linecount" : 2,
					"maxclass" : "o.compose",
					"numinlets" : 2,
					"numoutlets" : 1,
					"outlettype" : [ "" ],
					"patching_rect" : [ 5.0, 608.0, 248.0, 36.0 ],
					"saved_bundle_data" : [ 35, 98, 117, 110, 100, 108, 101, 0, 0, 0, 0, 0, 0, 0, 0, 0, 0, 0, 0, 32, 47, 115, 99, 97, 108, 101, 47, 99, 108, 97, 115, 115, 0, 0, 0, 0, 44, 115, 0, 0, 104, 101, 112, 116, 97, 116, 111, 110, 105, 99, 0, 0, 0, 0, 0, 24, 47, 115, 99, 97, 108, 101, 47, 116, 121, 112, 101, 0, 44, 115, 0, 0, 109, 97, 106, 111, 114, 0, 0, 0 ],
					"saved_bundle_length" : 80,
					"text" : "/scale/class : \"heptatonic\",\n/scale/type : \"major\""
				}

			}
, 			{
				"box" : 				{
					"id" : "obj-24",
					"maxclass" : "newobj",
					"numinlets" : 1,
					"numoutlets" : 1,
					"outlettype" : [ "FullPacket" ],
					"patcher" : 					{
						"fileversion" : 1,
						"appversion" : 						{
							"major" : 8,
							"minor" : 5,
							"revision" : 3,
							"architecture" : "x64",
							"modernui" : 1
						}
,
						"classnamespace" : "box",
						"rect" : [ 34.0, 87.0, 1073.0, 779.0 ],
						"bglocked" : 0,
						"openinpresentation" : 0,
						"default_fontsize" : 12.0,
						"default_fontface" : 0,
						"default_fontname" : "Arial",
						"gridonopen" : 1,
						"gridsize" : [ 15.0, 15.0 ],
						"gridsnaponopen" : 1,
						"objectsnaponopen" : 1,
						"statusbarvisible" : 2,
						"toolbarvisible" : 1,
						"lefttoolbarpinned" : 0,
						"toptoolbarpinned" : 0,
						"righttoolbarpinned" : 0,
						"bottomtoolbarpinned" : 0,
						"toolbars_unpinned_last_save" : 0,
						"tallnewobj" : 0,
						"boxanimatetime" : 200,
						"enablehscroll" : 1,
						"enablevscroll" : 1,
						"devicewidth" : 0.0,
						"description" : "",
						"digest" : "",
						"tags" : "",
						"style" : "",
						"subpatcher_template" : "",
						"assistshowspatchername" : 0,
						"boxes" : [ 							{
								"box" : 								{
									"id" : "obj-32",
									"maxclass" : "newobj",
									"numinlets" : 1,
									"numoutlets" : 4,
									"outlettype" : [ "", "", "", "FullPacket" ],
									"patching_rect" : [ 13.0, 451.0, 239.0, 22.0 ],
									"text" : "o.route /scale/class /scale/type /scale/types"
								}

							}
, 							{
								"box" : 								{
									"id" : "obj-31",
									"maxclass" : "newobj",
									"numinlets" : 1,
									"numoutlets" : 2,
									"outlettype" : [ "", "FullPacket" ],
									"patching_rect" : [ 13.0, 418.0, 109.0, 22.0 ],
									"text" : "o.select /scale"
								}

							}
, 							{
								"box" : 								{
									"id" : "obj-28",
									"maxclass" : "newobj",
									"numinlets" : 2,
									"numoutlets" : 1,
									"outlettype" : [ "FullPacket" ],
									"patching_rect" : [ 13.0, 298.0, 207.0, 22.0 ],
									"text" : "o.union"
								}

							}
, 							{
								"box" : 								{
									"id" : "obj-27",
									"maxclass" : "newobj",
									"numinlets" : 1,
									"numoutlets" : 1,
									"outlettype" : [ "FullPacket" ],
									"patcher" : 									{
										"fileversion" : 1,
										"appversion" : 										{
											"major" : 8,
											"minor" : 5,
											"revision" : 3,
											"architecture" : "x64",
											"modernui" : 1
										}
,
										"classnamespace" : "box",
										"rect" : [ 59.0, 106.0, 640.0, 480.0 ],
										"bglocked" : 0,
										"openinpresentation" : 0,
										"default_fontsize" : 12.0,
										"default_fontface" : 0,
										"default_fontname" : "Arial",
										"gridonopen" : 1,
										"gridsize" : [ 15.0, 15.0 ],
										"gridsnaponopen" : 1,
										"objectsnaponopen" : 1,
										"statusbarvisible" : 2,
										"toolbarvisible" : 1,
										"lefttoolbarpinned" : 0,
										"toptoolbarpinned" : 0,
										"righttoolbarpinned" : 0,
										"bottomtoolbarpinned" : 0,
										"toolbars_unpinned_last_save" : 0,
										"tallnewobj" : 0,
										"boxanimatetime" : 200,
										"enablehscroll" : 1,
										"enablevscroll" : 1,
										"devicewidth" : 0.0,
										"description" : "",
										"digest" : "",
										"tags" : "",
										"style" : "",
										"subpatcher_template" : "",
										"assistshowspatchername" : 0,
										"boxes" : [ 											{
												"box" : 												{
													"fontface" : 0,
													"id" : "obj-9",
													"linecount" : 3,
													"maxclass" : "o.expr.codebox",
													"numinlets" : 1,
													"numoutlets" : 2,
													"outlettype" : [ "FullPacket", "FullPacket" ],
													"patching_rect" : [ 50.0, 306.382351517677307, 285.0, 57.0 ],
													"text" : "# Label as an address\n/scale/class = \"/\" + /scale/class,\n/scale/type = \"/\" + /scale/type"
												}

											}
, 											{
												"box" : 												{
													"id" : "obj-23",
													"maxclass" : "message",
													"numinlets" : 2,
													"numoutlets" : 1,
													"outlettype" : [ "" ],
													"patching_rect" : [ 158.0, 240.0, 245.0, 22.0 ],
													"text" : "/scale/type must be defined in scale-selector"
												}

											}
, 											{
												"box" : 												{
													"id" : "obj-24",
													"maxclass" : "newobj",
													"numinlets" : 1,
													"numoutlets" : 0,
													"patching_rect" : [ 158.0, 274.0, 79.0, 22.0 ],
													"text" : "print ERROR"
												}

											}
, 											{
												"box" : 												{
													"id" : "obj-17",
													"maxclass" : "message",
													"numinlets" : 2,
													"numoutlets" : 1,
													"outlettype" : [ "" ],
													"patching_rect" : [ 162.0, 140.0, 249.0, 22.0 ],
													"text" : "/scale/class must be defined in scale-selector"
												}

											}
, 											{
												"box" : 												{
													"id" : "obj-15",
													"maxclass" : "newobj",
													"numinlets" : 1,
													"numoutlets" : 0,
													"patching_rect" : [ 162.0, 174.0, 79.0, 22.0 ],
													"text" : "print ERROR"
												}

											}
, 											{
												"box" : 												{
													"id" : "obj-14",
													"maxclass" : "newobj",
													"numinlets" : 1,
													"numoutlets" : 2,
													"outlettype" : [ "FullPacket", "FullPacket" ],
													"patching_rect" : [ 50.0, 208.0, 127.0, 22.0 ],
													"text" : "o.if bound(/scale/type)"
												}

											}
, 											{
												"box" : 												{
													"id" : "obj-13",
													"maxclass" : "newobj",
													"numinlets" : 1,
													"numoutlets" : 2,
													"outlettype" : [ "FullPacket", "FullPacket" ],
													"patching_rect" : [ 50.0, 100.0, 131.0, 22.0 ],
													"text" : "o.if bound(/scale/class)"
												}

											}
, 											{
												"box" : 												{
													"annotation" : "Input Bundle (OSC)",
													"comment" : "Input Bundle (OSC)",
													"hint" : "Input Bundle (OSC)",
													"id" : "obj-25",
													"index" : 1,
													"maxclass" : "inlet",
													"numinlets" : 0,
													"numoutlets" : 1,
													"outlettype" : [ "" ],
													"patching_rect" : [ 50.0, 40.0, 30.0, 30.0 ]
												}

											}
, 											{
												"box" : 												{
													"annotation" : "Output Bundle (OSC)",
													"comment" : "Output Bundle (OSC)",
													"hint" : "Output Bundle (OSC)",
													"id" : "obj-26",
													"index" : 1,
													"maxclass" : "outlet",
													"numinlets" : 1,
													"numoutlets" : 0,
													"patching_rect" : [ 50.0, 385.0, 30.0, 30.0 ]
												}

											}
 ],
										"lines" : [ 											{
												"patchline" : 												{
													"destination" : [ "obj-14", 0 ],
													"source" : [ "obj-13", 0 ]
												}

											}
, 											{
												"patchline" : 												{
													"destination" : [ "obj-17", 0 ],
													"source" : [ "obj-13", 1 ]
												}

											}
, 											{
												"patchline" : 												{
													"destination" : [ "obj-23", 0 ],
													"source" : [ "obj-14", 1 ]
												}

											}
, 											{
												"patchline" : 												{
													"destination" : [ "obj-9", 0 ],
													"source" : [ "obj-14", 0 ]
												}

											}
, 											{
												"patchline" : 												{
													"destination" : [ "obj-15", 0 ],
													"source" : [ "obj-17", 0 ]
												}

											}
, 											{
												"patchline" : 												{
													"destination" : [ "obj-24", 0 ],
													"source" : [ "obj-23", 0 ]
												}

											}
, 											{
												"patchline" : 												{
													"destination" : [ "obj-13", 0 ],
													"source" : [ "obj-25", 0 ]
												}

											}
, 											{
												"patchline" : 												{
													"destination" : [ "obj-26", 0 ],
													"source" : [ "obj-9", 0 ]
												}

											}
 ]
									}
,
									"patching_rect" : [ 13.0, 256.382351517677307, 99.0, 22.0 ],
									"saved_object_attributes" : 									{
										"description" : "",
										"digest" : "",
										"globalpatchername" : "",
										"tags" : ""
									}
,
									"text" : "p input-validation"
								}

							}
, 							{
								"box" : 								{
									"annotation" : "Scale class and type (OSC)",
									"comment" : "Scale class and type (OSC)",
									"hint" : "Scale class and type (OSC)",
									"id" : "obj-1",
									"index" : 1,
									"maxclass" : "inlet",
									"numinlets" : 0,
									"numoutlets" : 1,
									"outlettype" : [ "" ],
									"patching_rect" : [ 13.0, 205.382351517677307, 30.0, 30.0 ]
								}

							}
, 							{
								"box" : 								{
									"fontface" : 0,
									"id" : "obj-258",
									"linecount" : 3,
									"maxclass" : "o.expr.codebox",
									"numinlets" : 1,
									"numoutlets" : 2,
									"outlettype" : [ "FullPacket", "FullPacket" ],
									"patching_rect" : [ 13.0, 342.382351999999969, 475.0, 60.0 ],
									"text" : "/scale/types = getbundlemember(/scales, value(/scale/class)),\n/scale/current = getbundlemember(/scale/types, value(/scale/type)),\n/scale/length = length( /scale/current )"
								}

							}
, 							{
								"box" : 								{
									"id" : "obj-263",
									"maxclass" : "newobj",
									"numinlets" : 1,
									"numoutlets" : 1,
									"outlettype" : [ "bang" ],
									"patching_rect" : [ 201.0, 54.0, 58.0, 22.0 ],
									"text" : "loadbang"
								}

							}
, 							{
								"box" : 								{
									"fontface" : 0,
									"id" : "obj-259",
									"linecount" : 13,
									"maxclass" : "o.compose",
									"numinlets" : 2,
									"numoutlets" : 1,
									"outlettype" : [ "" ],
									"patching_rect" : [ 201.0, 88.382351517677307, 327.705879211425781, 177.0 ],
									"saved_bundle_data" : [ 35, 98, 117, 110, 100, 108, 101, 0, 0, 0, 0, 0, 0, 0, 0, 0, 0, 0, 1, -28, 47, 115, 99, 97, 108, 101, 115, 0, 44, 46, 0, 0, 0, 0, 1, -44, 35, 98, 117, 110, 100, 108, 101, 0, 0, 0, 0, 0, 0, 0, 0, 0, 0, 0, 1, 72, 47, 104, 101, 112, 116, 97, 116, 111, 110, 105, 99, 0, 44, 46, 0, 0, 0, 0, 1, 52, 35, 98, 117, 110, 100, 108, 101, 0, 0, 0, 0, 0, 0, 0, 0, 0, 0, 0, 0, 48, 47, 109, 97, 106, 111, 114, 0, 0, 44, 105, 105, 105, 105, 105, 105, 105, 0, 0, 0, 0, 0, 0, 0, 0, 0, 0, 0, 2, 0, 0, 0, 4, 0, 0, 0, 5, 0, 0, 0, 7, 0, 0, 0, 9, 0, 0, 0, 11, 0, 0, 0, 56, 47, 109, 105, 110, 111, 114, 47, 110, 97, 116, 117, 114, 97, 108, 0, 0, 44, 105, 105, 105, 105, 105, 105, 105, 0, 0, 0, 0, 0, 0, 0, 0, 0, 0, 0, 2, 0, 0, 0, 3, 0, 0, 0, 5, 0, 0, 0, 7, 0, 0, 0, 8, 0, 0, 0, 10, 0, 0, 0, 56, 47, 109, 105, 110, 111, 114, 47, 104, 97, 114, 109, 111, 110, 105, 99, 0, 44, 105, 105, 105, 105, 105, 105, 105, 0, 0, 0, 0, 0, 0, 0, 0, 0, 0, 0, 2, 0, 0, 0, 3, 0, 0, 0, 5, 0, 0, 0, 7, 0, 0, 0, 8, 0, 0, 0, 11, 0, 0, 0, 56, 47, 109, 105, 110, 111, 114, 47, 109, 101, 108, 111, 100, 105, 99, 0, 0, 44, 105, 105, 105, 105, 105, 105, 105, 0, 0, 0, 0, 0, 0, 0, 0, 0, 0, 0, 2, 0, 0, 0, 3, 0, 0, 0, 5, 0, 0, 0, 7, 0, 0, 0, 9, 0, 0, 0, 11, 0, 0, 0, 56, 47, 109, 111, 100, 101, 47, 108, 121, 100, 105, 97, 110, 0, 0, 0, 0, 44, 105, 105, 105, 105, 105, 105, 105, 0, 0, 0, 0, 0, 0, 0, 0, 0, 0, 0, 2, 0, 0, 0, 4, 0, 0, 0, 6, 0, 0, 0, 7, 0, 0, 0, 9, 0, 0, 0, 11, 0, 0, 0, 116, 47, 112, 101, 110, 116, 97, 116, 111, 110, 105, 99, 0, 44, 46, 0, 0, 0, 0, 0, 96, 35, 98, 117, 110, 100, 108, 101, 0, 0, 0, 0, 0, 0, 0, 0, 0, 0, 0, 0, 36, 47, 109, 97, 106, 111, 114, 0, 0, 44, 105, 105, 105, 105, 105, 0, 0, 0, 0, 0, 0, 0, 0, 0, 2, 0, 0, 0, 4, 0, 0, 0, 7, 0, 0, 0, 9, 0, 0, 0, 36, 47, 109, 105, 110, 111, 114, 0, 0, 44, 105, 105, 105, 105, 105, 0, 0, 0, 0, 0, 0, 0, 0, 0, 3, 0, 0, 0, 5, 0, 0, 0, 7, 0, 0, 0, 10 ],
									"saved_bundle_length" : 504,
									"text" : "/scales : {\n  /heptatonic : {\n    /major : [0, 2, 4, 5, 7, 9, 11],\n    /minor/natural : [0, 2, 3, 5, 7, 8, 10],\n    /minor/harmonic : [0, 2, 3, 5, 7, 8, 11],\n    /minor/melodic : [0, 2, 3, 5, 7, 9, 11],\n    /mode/lydian : [0, 2, 4, 6, 7, 9, 11]\n  },\n  /pentatonic : {\n    /major : [0, 2, 4, 7, 9],\n    /minor : [0, 3, 5, 7, 10]\n  }\n}"
								}

							}
, 							{
								"box" : 								{
									"annotation" : "Current Scale values and length (OSC)",
									"comment" : "Current Scale values and length (OSC)",
									"hint" : "Current Scale values and length (OSC)",
									"id" : "obj-22",
									"index" : 1,
									"maxclass" : "outlet",
									"numinlets" : 1,
									"numoutlets" : 0,
									"patching_rect" : [ 233.0, 486.000000000000114, 30.0, 30.0 ]
								}

							}
 ],
						"lines" : [ 							{
								"patchline" : 								{
									"destination" : [ "obj-27", 0 ],
									"source" : [ "obj-1", 0 ]
								}

							}
, 							{
								"patchline" : 								{
									"destination" : [ "obj-31", 0 ],
									"source" : [ "obj-258", 0 ]
								}

							}
, 							{
								"patchline" : 								{
									"destination" : [ "obj-28", 1 ],
									"source" : [ "obj-259", 0 ]
								}

							}
, 							{
								"patchline" : 								{
									"destination" : [ "obj-259", 0 ],
									"source" : [ "obj-263", 0 ]
								}

							}
, 							{
								"patchline" : 								{
									"destination" : [ "obj-28", 0 ],
									"source" : [ "obj-27", 0 ]
								}

							}
, 							{
								"patchline" : 								{
									"destination" : [ "obj-258", 0 ],
									"source" : [ "obj-28", 0 ]
								}

							}
, 							{
								"patchline" : 								{
									"destination" : [ "obj-32", 0 ],
									"source" : [ "obj-31", 0 ]
								}

							}
, 							{
								"patchline" : 								{
									"destination" : [ "obj-22", 0 ],
									"source" : [ "obj-32", 3 ]
								}

							}
 ]
					}
,
					"patching_rect" : [ 5.0, 653.617648000000031, 93.0, 22.0 ],
					"saved_object_attributes" : 					{
						"description" : "",
						"digest" : "",
						"globalpatchername" : "",
						"tags" : ""
					}
,
					"text" : "p scale-selector"
				}

			}
, 			{
				"box" : 				{
					"id" : "obj-4",
					"maxclass" : "newobj",
					"numinlets" : 1,
					"numoutlets" : 4,
					"outlettype" : [ "", "", "", "" ],
					"patching_rect" : [ 162.0, 1656.5, 56.0, 22.0 ],
					"restore" : 					{
						"GlobalMixer" : [ 0, 0, 0 ]
					}
,
					"text" : "autopattr",
					"varname" : "u802001736"
				}

			}
, 			{
				"box" : 				{
					"id" : "obj-125",
					"maxclass" : "newobj",
					"numinlets" : 1,
					"numoutlets" : 0,
					"patching_rect" : [ 416.499999999999773, 1064.0, 81.0, 22.0 ],
					"text" : "send~ mixer1"
				}

			}
, 			{
				"box" : 				{
					"bgmode" : 0,
					"border" : 0,
					"clickthrough" : 0,
					"enablehscroll" : 0,
					"enablevscroll" : 0,
					"id" : "obj-122",
					"lockeddragscroll" : 0,
					"lockedsize" : 0,
					"maxclass" : "bpatcher",
					"name" : "HL-voice.maxpat",
					"numinlets" : 9,
					"numoutlets" : 2,
					"offset" : [ 0.0, 0.0 ],
					"outlettype" : [ "signal", "FullPacket" ],
					"patching_rect" : [ 416.499999999999773, 125.382351517677307, 610.000000000000227, 733.0 ],
					"varname" : "HL-voice[2]",
					"viewvisibility" : 1
				}

			}
, 			{
				"box" : 				{
					"id" : "obj-118",
					"maxclass" : "newobj",
					"numinlets" : 1,
					"numoutlets" : 1,
					"outlettype" : [ "signal" ],
					"patcher" : 					{
						"fileversion" : 1,
						"appversion" : 						{
							"major" : 8,
							"minor" : 5,
							"revision" : 3,
							"architecture" : "x64",
							"modernui" : 1
						}
,
						"classnamespace" : "box",
						"rect" : [ 1767.0, 94.0, 865.0, 480.0 ],
						"bglocked" : 0,
						"openinpresentation" : 0,
						"default_fontsize" : 12.0,
						"default_fontface" : 0,
						"default_fontname" : "Arial",
						"gridonopen" : 1,
						"gridsize" : [ 15.0, 15.0 ],
						"gridsnaponopen" : 1,
						"objectsnaponopen" : 1,
						"statusbarvisible" : 2,
						"toolbarvisible" : 1,
						"lefttoolbarpinned" : 0,
						"toptoolbarpinned" : 0,
						"righttoolbarpinned" : 0,
						"bottomtoolbarpinned" : 0,
						"toolbars_unpinned_last_save" : 0,
						"tallnewobj" : 0,
						"boxanimatetime" : 200,
						"enablehscroll" : 1,
						"enablevscroll" : 1,
						"devicewidth" : 0.0,
						"description" : "",
						"digest" : "",
						"tags" : "",
						"style" : "",
						"subpatcher_template" : "",
						"assistshowspatchername" : 0,
						"boxes" : [ 							{
								"box" : 								{
									"fontface" : 0,
									"id" : "obj-23",
									"linecount" : 2,
									"maxclass" : "o.expr.codebox",
									"numinlets" : 1,
									"numoutlets" : 2,
									"outlettype" : [ "FullPacket", "FullPacket" ],
									"patching_rect" : [ 328.5, 257.0, 478.0, 44.0 ],
									"text" : "/bit_resolution = clip(/bit_resolution, 1, 52),\n/sample_ratio = clip(/sample_ratio, 0.1, 1.)"
								}

							}
, 							{
								"box" : 								{
									"id" : "obj-22",
									"maxclass" : "newobj",
									"numinlets" : 1,
									"numoutlets" : 2,
									"outlettype" : [ "", "FullPacket" ],
									"patching_rect" : [ 328.5, 225.0, 97.0, 22.0 ],
									"text" : "o.route /degrade"
								}

							}
, 							{
								"box" : 								{
									"hidden" : 1,
									"id" : "obj-21",
									"maxclass" : "newobj",
									"numinlets" : 1,
									"numoutlets" : 1,
									"outlettype" : [ "" ],
									"patching_rect" : [ 38.5, 333.0, 70.0, 22.0 ],
									"text" : "loadmess 1"
								}

							}
, 							{
								"box" : 								{
									"id" : "obj-12",
									"maxclass" : "newobj",
									"numinlets" : 1,
									"numoutlets" : 2,
									"outlettype" : [ "int", "" ],
									"patching_rect" : [ 309.0, 135.0, 38.5, 22.0 ],
									"text" : "t 2 l"
								}

							}
, 							{
								"box" : 								{
									"id" : "obj-11",
									"maxclass" : "newobj",
									"numinlets" : 1,
									"numoutlets" : 1,
									"outlettype" : [ "int" ],
									"patching_rect" : [ 129.5, 135.0, 22.0, 22.0 ],
									"text" : "t 1"
								}

							}
, 							{
								"box" : 								{
									"id" : "obj-6",
									"maxclass" : "newobj",
									"numinlets" : 1,
									"numoutlets" : 2,
									"outlettype" : [ "FullPacket", "FullPacket" ],
									"patching_rect" : [ 129.5, 104.0, 198.25, 22.0 ],
									"text" : "o.if /curr_health == /max_health"
								}

							}
, 							{
								"box" : 								{
									"id" : "obj-5",
									"maxclass" : "newobj",
									"numinlets" : 2,
									"numoutlets" : 2,
									"outlettype" : [ "", "" ],
									"patching_rect" : [ 129.5, 376.0, 80.0, 22.0 ],
									"text" : "gate 2"
								}

							}
, 							{
								"box" : 								{
									"annotation" : "Audio Out",
									"comment" : "Audio Out",
									"hint" : "Audio Out",
									"id" : "obj-4",
									"index" : 1,
									"maxclass" : "outlet",
									"numinlets" : 1,
									"numoutlets" : 0,
									"patching_rect" : [ 129.5, 449.0, 30.0, 30.0 ]
								}

							}
, 							{
								"box" : 								{
									"annotation" : "Audio In",
									"comment" : "Audio In",
									"hint" : "Audio In",
									"id" : "obj-3",
									"index" : 1,
									"maxclass" : "inlet",
									"numinlets" : 0,
									"numoutlets" : 1,
									"outlettype" : [ "" ],
									"patching_rect" : [ 190.5, 333.0, 30.0, 30.0 ]
								}

							}
, 							{
								"box" : 								{
									"id" : "obj-117",
									"maxclass" : "newobj",
									"numinlets" : 1,
									"numoutlets" : 3,
									"outlettype" : [ "", "", "FullPacket" ],
									"patching_rect" : [ 328.5, 376.0, 294.0, 22.0 ],
									"text" : "o.route /degrade/sample_ratio /degrade/bit_resolution"
								}

							}
, 							{
								"box" : 								{
									"id" : "obj-112",
									"maxclass" : "newobj",
									"numinlets" : 0,
									"numoutlets" : 1,
									"outlettype" : [ "" ],
									"patching_rect" : [ 129.5, 70.0, 78.0, 22.0 ],
									"text" : "r player-stats"
								}

							}
, 							{
								"box" : 								{
									"fontface" : 0,
									"id" : "obj-104",
									"linecount" : 2,
									"maxclass" : "o.display",
									"numinlets" : 1,
									"numoutlets" : 1,
									"outlettype" : [ "" ],
									"patching_rect" : [ 328.5, 317.0, 478.0, 46.0 ],
									"text" : "/bit_resolution : 1,\n/sample_ratio : 0.1"
								}

							}
, 							{
								"box" : 								{
									"fontface" : 0,
									"id" : "obj-102",
									"linecount" : 2,
									"maxclass" : "o.expr.codebox",
									"numinlets" : 1,
									"numoutlets" : 2,
									"outlettype" : [ "FullPacket", "FullPacket" ],
									"patching_rect" : [ 328.5, 170.0, 478.0, 44.0 ],
									"text" : "/degrade/bit_resolution = scale(/curr_health, 1, /max_health, 1, 24),\n/degrade/sample_ratio = scale(/curr_health, 1, /max_health, 0.1, 1.)"
								}

							}
, 							{
								"box" : 								{
									"id" : "obj-98",
									"maxclass" : "newobj",
									"numinlets" : 3,
									"numoutlets" : 1,
									"outlettype" : [ "signal" ],
									"patching_rect" : [ 191.0, 411.0, 294.0, 22.0 ],
									"text" : "degrade~ 1. 24"
								}

							}
 ],
						"lines" : [ 							{
								"patchline" : 								{
									"destination" : [ "obj-22", 0 ],
									"source" : [ "obj-102", 0 ]
								}

							}
, 							{
								"patchline" : 								{
									"destination" : [ "obj-117", 0 ],
									"source" : [ "obj-104", 0 ]
								}

							}
, 							{
								"patchline" : 								{
									"destination" : [ "obj-5", 0 ],
									"source" : [ "obj-11", 0 ]
								}

							}
, 							{
								"patchline" : 								{
									"destination" : [ "obj-6", 0 ],
									"source" : [ "obj-112", 0 ]
								}

							}
, 							{
								"patchline" : 								{
									"destination" : [ "obj-98", 2 ],
									"source" : [ "obj-117", 1 ]
								}

							}
, 							{
								"patchline" : 								{
									"destination" : [ "obj-98", 1 ],
									"source" : [ "obj-117", 0 ]
								}

							}
, 							{
								"patchline" : 								{
									"destination" : [ "obj-102", 0 ],
									"source" : [ "obj-12", 1 ]
								}

							}
, 							{
								"patchline" : 								{
									"destination" : [ "obj-5", 0 ],
									"source" : [ "obj-12", 0 ]
								}

							}
, 							{
								"patchline" : 								{
									"destination" : [ "obj-5", 0 ],
									"hidden" : 1,
									"source" : [ "obj-21", 0 ]
								}

							}
, 							{
								"patchline" : 								{
									"destination" : [ "obj-23", 0 ],
									"source" : [ "obj-22", 0 ]
								}

							}
, 							{
								"patchline" : 								{
									"destination" : [ "obj-104", 0 ],
									"source" : [ "obj-23", 0 ]
								}

							}
, 							{
								"patchline" : 								{
									"destination" : [ "obj-5", 1 ],
									"source" : [ "obj-3", 0 ]
								}

							}
, 							{
								"patchline" : 								{
									"destination" : [ "obj-4", 0 ],
									"source" : [ "obj-5", 0 ]
								}

							}
, 							{
								"patchline" : 								{
									"destination" : [ "obj-98", 0 ],
									"source" : [ "obj-5", 1 ]
								}

							}
, 							{
								"patchline" : 								{
									"destination" : [ "obj-11", 0 ],
									"source" : [ "obj-6", 0 ]
								}

							}
, 							{
								"patchline" : 								{
									"destination" : [ "obj-12", 0 ],
									"source" : [ "obj-6", 1 ]
								}

							}
, 							{
								"patchline" : 								{
									"destination" : [ "obj-4", 0 ],
									"source" : [ "obj-98", 0 ]
								}

							}
 ]
					}
,
					"patching_rect" : [ 1837.5, 1128.25, 58.0, 22.0 ],
					"saved_object_attributes" : 					{
						"description" : "",
						"digest" : "",
						"globalpatchername" : "",
						"tags" : ""
					}
,
					"text" : "p distort~"
				}

			}
, 			{
				"box" : 				{
					"id" : "obj-23",
					"maxclass" : "button",
					"numinlets" : 1,
					"numoutlets" : 1,
					"outlettype" : [ "bang" ],
					"parameter_enable" : 0,
					"patching_rect" : [ 493.0, 1594.25, 24.0, 24.0 ]
				}

			}
, 			{
				"box" : 				{
					"id" : "obj-21",
					"maxclass" : "newobj",
					"numinlets" : 2,
					"numoutlets" : 1,
					"outlettype" : [ "bang" ],
					"patching_rect" : [ 493.0, 1560.913663864135742, 62.0, 22.0 ],
					"text" : "metro 8n"
				}

			}
, 			{
				"box" : 				{
					"fontface" : 0,
					"id" : "obj-20",
					"linecount" : 5,
					"maxclass" : "o.display",
					"numinlets" : 1,
					"numoutlets" : 1,
					"outlettype" : [ "" ],
					"patching_rect" : [ 469.5, 1711.0, 257.0, 85.0 ],
					"text" : "/bars : 605,\n/beats : 1,\n/units : 240.,\n/tempo/bpm : 130.,\n/time_sig : [4, 4]"
				}

			}
, 			{
				"box" : 				{
					"id" : "obj-18",
					"maxclass" : "newobj",
					"numinlets" : 5,
					"numoutlets" : 1,
					"outlettype" : [ "FullPacket" ],
					"patching_rect" : [ 469.5, 1674.0, 268.88136500120163, 22.0 ],
					"text" : "o.pack /bars /beats /units /tempo/bpm /time_sig"
				}

			}
, 			{
				"box" : 				{
					"id" : "obj-13",
					"maxclass" : "newobj",
					"numinlets" : 1,
					"numoutlets" : 3,
					"outlettype" : [ "int", "bang", "bang" ],
					"patching_rect" : [ 469.5, 1473.25, 418.810184001922607, 22.0 ],
					"text" : "t i b b"
				}

			}
, 			{
				"box" : 				{
					"id" : "obj-11",
					"maxclass" : "message",
					"numinlets" : 2,
					"numoutlets" : 1,
					"outlettype" : [ "" ],
					"patching_rect" : [ 869.310184001922607, 1594.25, 29.5, 22.0 ],
					"text" : "0."
				}

			}
, 			{
				"box" : 				{
					"format" : 6,
					"id" : "obj-272",
					"maxclass" : "flonum",
					"numinlets" : 1,
					"numoutlets" : 2,
					"outlettype" : [ "", "bang" ],
					"parameter_enable" : 0,
					"patching_rect" : [ 259.0, 1568.0, 50.0, 22.0 ]
				}

			}
, 			{
				"box" : 				{
					"bgmode" : 0,
					"border" : 0,
					"clickthrough" : 0,
					"enablehscroll" : 0,
					"enablevscroll" : 0,
					"id" : "obj-264",
					"lockeddragscroll" : 0,
					"lockedsize" : 0,
					"maxclass" : "bpatcher",
					"name" : "HL-voice.maxpat",
					"numinlets" : 9,
					"numoutlets" : 2,
					"offset" : [ 0.0, 0.0 ],
					"outlettype" : [ "signal", "FullPacket" ],
					"patching_rect" : [ 1046.0, 125.382351517677307, 609.5, 733.0 ],
					"varname" : "HL-voice[1]",
					"viewvisibility" : 1
				}

			}
, 			{
				"box" : 				{
					"id" : "obj-260",
					"maxclass" : "newobj",
					"numinlets" : 0,
					"numoutlets" : 1,
					"outlettype" : [ "" ],
					"patching_rect" : [ 416.499999999999773, 93.558772921562195, 85.0, 22.0 ],
					"text" : "r global-toggle"
				}

			}
, 			{
				"box" : 				{
					"bgmode" : 0,
					"border" : 0,
					"clickthrough" : 0,
					"enablehscroll" : 0,
					"enablevscroll" : 0,
					"id" : "obj-250",
					"lockeddragscroll" : 0,
					"lockedsize" : 0,
					"maxclass" : "bpatcher",
					"name" : "HL-voice.maxpat",
					"numinlets" : 9,
					"numoutlets" : 2,
					"offset" : [ 0.0, 0.0 ],
					"outlettype" : [ "signal", "FullPacket" ],
					"patching_rect" : [ 1931.999999999998181, 125.382351517677307, 608.000000000009095, 733.0 ],
					"varname" : "HL-voice",
					"viewvisibility" : 1
				}

			}
, 			{
				"box" : 				{
					"id" : "obj-242",
					"maxclass" : "newobj",
					"numinlets" : 0,
					"numoutlets" : 1,
					"outlettype" : [ "" ],
					"patching_rect" : [ 5.0, 5.0, 85.0, 22.0 ],
					"text" : "r global-toggle"
				}

			}
, 			{
				"box" : 				{
					"id" : "obj-241",
					"maxclass" : "newobj",
					"numinlets" : 1,
					"numoutlets" : 0,
					"patching_rect" : [ 162.0, 1618.117660164833069, 78.0, 22.0 ],
					"text" : "s global-pattr"
				}

			}
, 			{
				"box" : 				{
					"id" : "obj-240",
					"maxclass" : "newobj",
					"numinlets" : 1,
					"numoutlets" : 0,
					"patching_rect" : [ 5.588250339031219, 1618.117660164833069, 78.0, 22.0 ],
					"text" : "s global-pattr"
				}

			}
, 			{
				"box" : 				{
					"id" : "obj-239",
					"maxclass" : "newobj",
					"numinlets" : 0,
					"numoutlets" : 1,
					"outlettype" : [ "" ],
					"patching_rect" : [ 5.588250339031219, 1652.176467299461365, 76.0, 22.0 ],
					"text" : "r global-pattr"
				}

			}
, 			{
				"box" : 				{
					"id" : "obj-233",
					"maxclass" : "newobj",
					"numinlets" : 0,
					"numoutlets" : 1,
					"outlettype" : [ "" ],
					"patching_rect" : [ 469.5, 1443.25, 85.0, 22.0 ],
					"text" : "r global-toggle"
				}

			}
, 			{
				"box" : 				{
					"id" : "obj-231",
					"maxclass" : "newobj",
					"numinlets" : 1,
					"numoutlets" : 0,
					"patching_rect" : [ 312.333333333333258, 73.0, 87.0, 22.0 ],
					"text" : "s global-toggle"
				}

			}
, 			{
				"box" : 				{
					"id" : "obj-230",
					"maxclass" : "toggle",
					"numinlets" : 1,
					"numoutlets" : 1,
					"outlettype" : [ "int" ],
					"parameter_enable" : 0,
					"patching_rect" : [ 312.333333333333258, 5.0, 54.5, 54.5 ]
				}

			}
, 			{
				"box" : 				{
					"id" : "obj-226",
					"maxclass" : "button",
					"numinlets" : 1,
					"numoutlets" : 1,
					"outlettype" : [ "bang" ],
					"parameter_enable" : 0,
					"patching_rect" : [ 259.0, 1471.88237738609314, 24.0, 24.0 ]
				}

			}
, 			{
				"box" : 				{
					"id" : "obj-227",
					"maxclass" : "newobj",
					"numinlets" : 2,
					"numoutlets" : 1,
					"outlettype" : [ "int" ],
					"patching_rect" : [ 259.0, 1509.529437780380249, 49.588236570358276, 22.0 ],
					"text" : "i"
				}

			}
, 			{
				"box" : 				{
					"id" : "obj-228",
					"maxclass" : "number",
					"minimum" : 1,
					"numinlets" : 1,
					"numoutlets" : 2,
					"outlettype" : [ "", "bang" ],
					"parameter_enable" : 0,
					"patching_rect" : [ 289.588236570358276, 1471.88237738609314, 48.823529362678528, 22.0 ]
				}

			}
, 			{
				"box" : 				{
					"id" : "obj-219",
					"maxclass" : "message",
					"numinlets" : 2,
					"numoutlets" : 1,
					"outlettype" : [ "" ],
					"patching_rect" : [ 66.588250339031219, 1576.529437780380249, 63.0, 22.0 ],
					"text" : "writeagain"
				}

			}
, 			{
				"box" : 				{
					"id" : "obj-200",
					"maxclass" : "newobj",
					"numinlets" : 1,
					"numoutlets" : 0,
					"patching_rect" : [ 469.5, 1854.0, 91.0, 22.0 ],
					"text" : "s transport-vals"
				}

			}
, 			{
				"box" : 				{
					"id" : "obj-169",
					"maxclass" : "message",
					"numinlets" : 2,
					"numoutlets" : 1,
					"outlettype" : [ "" ],
					"patching_rect" : [ 39.117677271366119, 1515.949875712394714, 33.0, 22.0 ],
					"text" : "read"
				}

			}
, 			{
				"box" : 				{
					"id" : "obj-154",
					"maxclass" : "message",
					"numinlets" : 2,
					"numoutlets" : 1,
					"outlettype" : [ "" ],
					"patching_rect" : [ 55.588250339031219, 1542.352972984313965, 34.0, 22.0 ],
					"text" : "write"
				}

			}
, 			{
				"box" : 				{
					"id" : "obj-152",
					"maxclass" : "button",
					"numinlets" : 1,
					"numoutlets" : 1,
					"outlettype" : [ "bang" ],
					"parameter_enable" : 0,
					"patching_rect" : [ 162.0, 1471.88237738609314, 24.0, 24.0 ]
				}

			}
, 			{
				"box" : 				{
					"id" : "obj-150",
					"maxclass" : "newobj",
					"numinlets" : 2,
					"numoutlets" : 1,
					"outlettype" : [ "int" ],
					"patching_rect" : [ 162.0, 1509.529437780380249, 49.588236570358276, 22.0 ],
					"text" : "i"
				}

			}
, 			{
				"box" : 				{
					"id" : "obj-149",
					"maxclass" : "number",
					"minimum" : 1,
					"numinlets" : 1,
					"numoutlets" : 2,
					"outlettype" : [ "", "bang" ],
					"parameter_enable" : 0,
					"patching_rect" : [ 192.588236570358276, 1471.88237738609314, 48.823529362678528, 22.0 ]
				}

			}
, 			{
				"box" : 				{
					"id" : "obj-147",
					"maxclass" : "message",
					"numinlets" : 2,
					"numoutlets" : 1,
					"outlettype" : [ "" ],
					"patching_rect" : [ 162.0, 1542.47061562538147, 52.0, 22.0 ],
					"text" : "store $1"
				}

			}
, 			{
				"box" : 				{
					"id" : "obj-99",
					"maxclass" : "newobj",
					"numinlets" : 1,
					"numoutlets" : 0,
					"patching_rect" : [ 5.0, 527.882351517677307, 77.0, 22.0 ],
					"text" : "s game-stats"
				}

			}
, 			{
				"box" : 				{
					"id" : "obj-97",
					"maxclass" : "newobj",
					"numinlets" : 1,
					"numoutlets" : 0,
					"patching_rect" : [ 56.666666666666657, 418.470562219619751, 80.0, 22.0 ],
					"text" : "s player-stats"
				}

			}
, 			{
				"box" : 				{
					"id" : "obj-92",
					"maxclass" : "newobj",
					"numinlets" : 0,
					"numoutlets" : 1,
					"outlettype" : [ "" ],
					"patching_rect" : [ 371.0, 1473.25, 90.0, 22.0 ],
					"text" : "r transport-msg"
				}

			}
, 			{
				"box" : 				{
					"id" : "obj-81",
					"maxclass" : "toggle",
					"numinlets" : 1,
					"numoutlets" : 1,
					"outlettype" : [ "int" ],
					"parameter_enable" : 0,
					"patching_rect" : [ 469.5, 1504.0, 41.0, 41.0 ]
				}

			}
, 			{
				"box" : 				{
					"id" : "obj-77",
					"maxclass" : "newobj",
					"numinlets" : 2,
					"numoutlets" : 9,
					"outlettype" : [ "int", "int", "float", "float", "float", "", "int", "float", "" ],
					"patching_rect" : [ 469.5, 1635.25, 418.810184001922607, 22.0 ],
					"text" : "transport"
				}

			}
, 			{
				"box" : 				{
					"id" : "obj-71",
					"lastchannelcount" : 0,
					"maxclass" : "live.gain~",
					"numinlets" : 2,
					"numoutlets" : 5,
					"orientation" : 1,
					"outlettype" : [ "signal", "signal", "", "float", "list" ],
					"parameter_enable" : 1,
					"patching_rect" : [ 1089.0, 1568.5, 355.0, 47.0 ],
					"saved_attribute_attributes" : 					{
						"valueof" : 						{
							"parameter_longname" : "live.gain~",
							"parameter_mmax" : 6.0,
							"parameter_mmin" : -70.0,
							"parameter_shortname" : "live.gain~",
							"parameter_type" : 0,
							"parameter_unitstyle" : 4
						}

					}

				}

			}
, 			{
				"box" : 				{
					"id" : "obj-72",
					"maxclass" : "ezdac~",
					"numinlets" : 2,
					"numoutlets" : 0,
					"patching_rect" : [ 1089.0, 1638.0, 103.0, 103.0 ]
				}

			}
, 			{
				"box" : 				{
					"fontface" : 0,
					"id" : "obj-43",
					"linecount" : 3,
					"maxclass" : "o.display",
					"numinlets" : 1,
					"numoutlets" : 1,
					"outlettype" : [ "" ],
					"patching_rect" : [ 108.333333333333314, 176.0, 291.0, 59.0 ],
					"text" : "/num_on_screen : 6,\n/hit : 236,\n/killed : 9"
				}

			}
, 			{
				"box" : 				{
					"id" : "obj-40",
					"maxclass" : "message",
					"numinlets" : 2,
					"numoutlets" : 1,
					"outlettype" : [ "" ],
					"patching_rect" : [ 5.588250339031219, 1460.529437780380249, 77.0, 22.0 ],
					"text" : "clientwindow"
				}

			}
, 			{
				"box" : 				{
					"id" : "obj-32",
					"maxclass" : "message",
					"numinlets" : 2,
					"numoutlets" : 1,
					"outlettype" : [ "" ],
					"patching_rect" : [ 18.588250339031219, 1488.529437780380249, 89.0, 22.0 ],
					"text" : "storagewindow"
				}

			}
, 			{
				"box" : 				{
					"autorestore" : "music.json",
					"id" : "obj-17",
					"maxclass" : "newobj",
					"numinlets" : 1,
					"numoutlets" : 1,
					"outlettype" : [ "" ],
					"patching_rect" : [ 5.588250339031219, 1683.0, 107.0, 22.0 ],
					"saved_object_attributes" : 					{
						"client_rect" : [ 4, 44, 358, 172 ],
						"parameter_enable" : 0,
						"parameter_mappable" : 0,
						"storage_rect" : [ 583, 69, 1034, 197 ]
					}
,
					"text" : "pattrstorage music",
					"varname" : "music"
				}

			}
, 			{
				"box" : 				{
					"fontface" : 0,
					"id" : "obj-16",
					"linecount" : 4,
					"maxclass" : "o.display",
					"numinlets" : 1,
					"numoutlets" : 1,
					"outlettype" : [ "" ],
					"patching_rect" : [ 5.0, 448.382351517677307, 304.0, 72.0 ],
					"text" : "/play_count : 1,\n/time/total_played : [0, 0, 32, 776],\n/score : 120,\n/time/current_playthrough : [0, 0, 31, 545]"
				}

			}
, 			{
				"box" : 				{
					"fontface" : 0,
					"id" : "obj-15",
					"linecount" : 9,
					"maxclass" : "o.display",
					"numinlets" : 1,
					"numoutlets" : 1,
					"outlettype" : [ "" ],
					"patching_rect" : [ 56.666666666666657, 275.0, 272.0, 136.0 ],
					"text" : "/shots_fired : 1761,\n/avg_shots_per_second : 0,\n/accuracy : 13.4015,\n/avg_time_between_kills : 3311.56,\n/max_health : 5,\n/curr_health : 0,\n/health_lost : 5,\n/near_misses : 7,\n/weapon_selected : 0"
				}

			}
, 			{
				"box" : 				{
					"id" : "obj-14",
					"maxclass" : "newobj",
					"numinlets" : 1,
					"numoutlets" : 4,
					"outlettype" : [ "", "", "", "FullPacket" ],
					"patching_rect" : [ 5.0, 143.0, 174.0, 22.0 ],
					"text" : "o.route /game /player /enemies"
				}

			}
, 			{
				"box" : 				{
					"id" : "obj-12",
					"maxclass" : "newobj",
					"numinlets" : 2,
					"numoutlets" : 1,
					"outlettype" : [ "FullPacket" ],
					"patching_rect" : [ 5.0, 107.0, 141.0, 22.0 ],
					"text" : "o.union"
				}

			}
, 			{
				"box" : 				{
					"id" : "obj-9",
					"maxclass" : "newobj",
					"numinlets" : 2,
					"numoutlets" : 1,
					"outlettype" : [ "bang" ],
					"patching_rect" : [ 5.0, 73.0, 69.0, 22.0 ],
					"text" : "metro 1000"
				}

			}
, 			{
				"box" : 				{
					"id" : "obj-7",
					"maxclass" : "toggle",
					"numinlets" : 1,
					"numoutlets" : 1,
					"outlettype" : [ "int" ],
					"parameter_enable" : 0,
					"patching_rect" : [ 5.0, 35.0, 24.0, 24.0 ]
				}

			}
, 			{
				"box" : 				{
					"id" : "obj-1",
					"maxclass" : "newobj",
					"numinlets" : 1,
					"numoutlets" : 1,
					"outlettype" : [ "" ],
					"patching_rect" : [ 127.0, 73.0, 145.0, 22.0 ],
					"text" : "udpreceive 8001 OSC"
				}

			}
 ],
		"lines" : [ 			{
				"patchline" : 				{
					"destination" : [ "obj-12", 1 ],
					"source" : [ "obj-1", 0 ]
				}

			}
, 			{
				"patchline" : 				{
					"destination" : [ "obj-76", 0 ],
					"source" : [ "obj-101", 0 ]
				}

			}
, 			{
				"patchline" : 				{
					"destination" : [ "obj-76", 0 ],
					"source" : [ "obj-104", 0 ]
				}

			}
, 			{
				"patchline" : 				{
					"destination" : [ "obj-76", 1 ],
					"source" : [ "obj-106", 0 ]
				}

			}
, 			{
				"patchline" : 				{
					"destination" : [ "obj-144", 0 ],
					"source" : [ "obj-108", 0 ]
				}

			}
, 			{
				"patchline" : 				{
					"destination" : [ "obj-76", 2 ],
					"source" : [ "obj-109", 0 ]
				}

			}
, 			{
				"patchline" : 				{
					"destination" : [ "obj-77", 1 ],
					"source" : [ "obj-11", 0 ]
				}

			}
, 			{
				"patchline" : 				{
					"destination" : [ "obj-101", 0 ],
					"source" : [ "obj-115", 0 ]
				}

			}
, 			{
				"patchline" : 				{
					"destination" : [ "obj-14", 0 ],
					"source" : [ "obj-12", 0 ]
				}

			}
, 			{
				"patchline" : 				{
					"destination" : [ "obj-268", 0 ],
					"order" : 1,
					"source" : [ "obj-122", 0 ]
				}

			}
, 			{
				"patchline" : 				{
					"destination" : [ "obj-269", 0 ],
					"midpoints" : [ 425.999999999999773, 986.735281109809875, 525.5, 986.735281109809875 ],
					"order" : 0,
					"source" : [ "obj-122", 0 ]
				}

			}
, 			{
				"patchline" : 				{
					"destination" : [ "obj-108", 2 ],
					"source" : [ "obj-127", 0 ]
				}

			}
, 			{
				"patchline" : 				{
					"destination" : [ "obj-11", 0 ],
					"source" : [ "obj-13", 2 ]
				}

			}
, 			{
				"patchline" : 				{
					"destination" : [ "obj-203", 0 ],
					"source" : [ "obj-13", 1 ]
				}

			}
, 			{
				"patchline" : 				{
					"destination" : [ "obj-81", 0 ],
					"source" : [ "obj-13", 0 ]
				}

			}
, 			{
				"patchline" : 				{
					"destination" : [ "obj-141", 0 ],
					"source" : [ "obj-137", 0 ]
				}

			}
, 			{
				"patchline" : 				{
					"destination" : [ "obj-15", 0 ],
					"source" : [ "obj-14", 1 ]
				}

			}
, 			{
				"patchline" : 				{
					"destination" : [ "obj-16", 0 ],
					"source" : [ "obj-14", 0 ]
				}

			}
, 			{
				"patchline" : 				{
					"destination" : [ "obj-43", 0 ],
					"source" : [ "obj-14", 2 ]
				}

			}
, 			{
				"patchline" : 				{
					"destination" : [ "obj-108", 1 ],
					"source" : [ "obj-141", 1 ]
				}

			}
, 			{
				"patchline" : 				{
					"destination" : [ "obj-108", 0 ],
					"source" : [ "obj-141", 0 ]
				}

			}
, 			{
				"patchline" : 				{
					"destination" : [ "obj-145", 0 ],
					"order" : 1,
					"source" : [ "obj-144", 0 ]
				}

			}
, 			{
				"patchline" : 				{
					"destination" : [ "obj-159", 0 ],
					"order" : 0,
					"source" : [ "obj-144", 0 ]
				}

			}
, 			{
				"patchline" : 				{
					"destination" : [ "obj-264", 2 ],
					"source" : [ "obj-145", 0 ]
				}

			}
, 			{
				"patchline" : 				{
					"destination" : [ "obj-241", 0 ],
					"source" : [ "obj-147", 0 ]
				}

			}
, 			{
				"patchline" : 				{
					"destination" : [ "obj-150", 1 ],
					"source" : [ "obj-149", 0 ]
				}

			}
, 			{
				"patchline" : 				{
					"destination" : [ "obj-97", 0 ],
					"source" : [ "obj-15", 0 ]
				}

			}
, 			{
				"patchline" : 				{
					"destination" : [ "obj-147", 0 ],
					"source" : [ "obj-150", 0 ]
				}

			}
, 			{
				"patchline" : 				{
					"destination" : [ "obj-150", 0 ],
					"source" : [ "obj-152", 0 ]
				}

			}
, 			{
				"patchline" : 				{
					"destination" : [ "obj-145", 0 ],
					"source" : [ "obj-153", 0 ]
				}

			}
, 			{
				"patchline" : 				{
					"destination" : [ "obj-240", 0 ],
					"source" : [ "obj-154", 0 ]
				}

			}
, 			{
				"patchline" : 				{
					"destination" : [ "obj-108", 0 ],
					"source" : [ "obj-155", 0 ]
				}

			}
, 			{
				"patchline" : 				{
					"destination" : [ "obj-99", 0 ],
					"source" : [ "obj-16", 0 ]
				}

			}
, 			{
				"patchline" : 				{
					"destination" : [ "obj-240", 0 ],
					"source" : [ "obj-169", 0 ]
				}

			}
, 			{
				"patchline" : 				{
					"destination" : [ "obj-20", 0 ],
					"source" : [ "obj-18", 0 ]
				}

			}
, 			{
				"patchline" : 				{
					"destination" : [ "obj-200", 0 ],
					"source" : [ "obj-20", 0 ]
				}

			}
, 			{
				"patchline" : 				{
					"destination" : [ "obj-77", 0 ],
					"midpoints" : [ 678.905092000961304, 1627.0, 479.0, 1627.0 ],
					"source" : [ "obj-203", 0 ]
				}

			}
, 			{
				"patchline" : 				{
					"destination" : [ "obj-23", 0 ],
					"source" : [ "obj-21", 0 ]
				}

			}
, 			{
				"patchline" : 				{
					"destination" : [ "obj-240", 0 ],
					"source" : [ "obj-219", 0 ]
				}

			}
, 			{
				"patchline" : 				{
					"destination" : [ "obj-227", 0 ],
					"source" : [ "obj-226", 0 ]
				}

			}
, 			{
				"patchline" : 				{
					"destination" : [ "obj-241", 0 ],
					"source" : [ "obj-227", 0 ]
				}

			}
, 			{
				"patchline" : 				{
					"destination" : [ "obj-227", 1 ],
					"source" : [ "obj-228", 0 ]
				}

			}
, 			{
				"patchline" : 				{
					"destination" : [ "obj-279", 0 ],
					"source" : [ "obj-229", 0 ]
				}

			}
, 			{
				"patchline" : 				{
					"destination" : [ "obj-77", 0 ],
					"midpoints" : [ 502.5, 1626.75, 479.0, 1626.75 ],
					"source" : [ "obj-23", 0 ]
				}

			}
, 			{
				"patchline" : 				{
					"destination" : [ "obj-231", 0 ],
					"source" : [ "obj-230", 0 ]
				}

			}
, 			{
				"patchline" : 				{
					"destination" : [ "obj-229", 0 ],
					"source" : [ "obj-232", 0 ]
				}

			}
, 			{
				"patchline" : 				{
					"destination" : [ "obj-13", 0 ],
					"source" : [ "obj-233", 0 ]
				}

			}
, 			{
				"patchline" : 				{
					"destination" : [ "obj-17", 0 ],
					"midpoints" : [ 15.088250339031219, 1676.588233649730682, 15.088250339031219, 1676.588233649730682 ],
					"source" : [ "obj-239", 0 ]
				}

			}
, 			{
				"patchline" : 				{
					"destination" : [ "obj-49", 0 ],
					"source" : [ "obj-24", 0 ]
				}

			}
, 			{
				"patchline" : 				{
					"destination" : [ "obj-7", 0 ],
					"source" : [ "obj-242", 0 ]
				}

			}
, 			{
				"patchline" : 				{
					"destination" : [ "obj-103", 0 ],
					"source" : [ "obj-250", 0 ]
				}

			}
, 			{
				"patchline" : 				{
					"destination" : [ "obj-76", 3 ],
					"source" : [ "obj-259", 0 ]
				}

			}
, 			{
				"patchline" : 				{
					"destination" : [ "obj-122", 0 ],
					"source" : [ "obj-260", 0 ]
				}

			}
, 			{
				"patchline" : 				{
					"destination" : [ "obj-137", 0 ],
					"source" : [ "obj-264", 1 ]
				}

			}
, 			{
				"patchline" : 				{
					"destination" : [ "obj-287", 0 ],
					"midpoints" : [ 1055.5, 988.691175758838654, 1154.250000000000227, 988.691175758838654 ],
					"order" : 0,
					"source" : [ "obj-264", 0 ]
				}

			}
, 			{
				"patchline" : 				{
					"destination" : [ "obj-288", 0 ],
					"order" : 1,
					"source" : [ "obj-264", 0 ]
				}

			}
, 			{
				"patchline" : 				{
					"destination" : [ "obj-274", 0 ],
					"source" : [ "obj-265", 0 ]
				}

			}
, 			{
				"patchline" : 				{
					"destination" : [ "obj-125", 0 ],
					"order" : 1,
					"source" : [ "obj-268", 0 ]
				}

			}
, 			{
				"patchline" : 				{
					"destination" : [ "obj-276", 0 ],
					"order" : 0,
					"source" : [ "obj-268", 0 ]
				}

			}
, 			{
				"patchline" : 				{
					"destination" : [ "obj-275", 0 ],
					"order" : 0,
					"source" : [ "obj-269", 0 ]
				}

			}
, 			{
				"patchline" : 				{
					"destination" : [ "obj-277", 0 ],
					"order" : 1,
					"source" : [ "obj-269", 0 ]
				}

			}
, 			{
				"patchline" : 				{
					"destination" : [ "obj-268", 1 ],
					"source" : [ "obj-270", 0 ]
				}

			}
, 			{
				"patchline" : 				{
					"destination" : [ "obj-241", 0 ],
					"source" : [ "obj-272", 0 ]
				}

			}
, 			{
				"patchline" : 				{
					"destination" : [ "obj-269", 1 ],
					"source" : [ "obj-274", 1 ]
				}

			}
, 			{
				"patchline" : 				{
					"destination" : [ "obj-270", 0 ],
					"source" : [ "obj-274", 0 ]
				}

			}
, 			{
				"patchline" : 				{
					"destination" : [ "obj-229", 0 ],
					"source" : [ "obj-278", 0 ]
				}

			}
, 			{
				"patchline" : 				{
					"destination" : [ "obj-258", 0 ],
					"source" : [ "obj-279", 0 ]
				}

			}
, 			{
				"patchline" : 				{
					"destination" : [ "obj-279", 1 ],
					"source" : [ "obj-281", 0 ]
				}

			}
, 			{
				"patchline" : 				{
					"destination" : [ "obj-286", 0 ],
					"source" : [ "obj-285", 0 ]
				}

			}
, 			{
				"patchline" : 				{
					"destination" : [ "obj-287", 1 ],
					"source" : [ "obj-285", 1 ]
				}

			}
, 			{
				"patchline" : 				{
					"destination" : [ "obj-288", 1 ],
					"source" : [ "obj-286", 0 ]
				}

			}
, 			{
				"patchline" : 				{
					"destination" : [ "obj-282", 0 ],
					"order" : 1,
					"source" : [ "obj-287", 0 ]
				}

			}
, 			{
				"patchline" : 				{
					"destination" : [ "obj-284", 0 ],
					"order" : 0,
					"source" : [ "obj-287", 0 ]
				}

			}
, 			{
				"patchline" : 				{
					"destination" : [ "obj-102", 0 ],
					"order" : 1,
					"source" : [ "obj-288", 0 ]
				}

			}
, 			{
				"patchline" : 				{
					"destination" : [ "obj-283", 0 ],
					"order" : 0,
					"source" : [ "obj-288", 0 ]
				}

			}
, 			{
				"patchline" : 				{
					"destination" : [ "obj-285", 0 ],
					"source" : [ "obj-289", 0 ]
				}

			}
, 			{
				"patchline" : 				{
					"destination" : [ "obj-240", 0 ],
					"source" : [ "obj-32", 0 ]
				}

			}
, 			{
				"patchline" : 				{
					"destination" : [ "obj-36", 1 ],
					"source" : [ "obj-33", 0 ]
				}

			}
, 			{
				"patchline" : 				{
					"destination" : [ "obj-45", 0 ],
					"source" : [ "obj-34", 0 ]
				}

			}
, 			{
				"patchline" : 				{
					"destination" : [ "obj-122", 1 ],
					"source" : [ "obj-36", 0 ]
				}

			}
, 			{
				"patchline" : 				{
					"destination" : [ "obj-33", 0 ],
					"source" : [ "obj-37", 0 ]
				}

			}
, 			{
				"patchline" : 				{
					"destination" : [ "obj-42", 0 ],
					"source" : [ "obj-38", 0 ]
				}

			}
, 			{
				"patchline" : 				{
					"destination" : [ "obj-264", 1 ],
					"source" : [ "obj-39", 0 ]
				}

			}
, 			{
				"patchline" : 				{
					"destination" : [ "obj-240", 0 ],
					"source" : [ "obj-40", 0 ]
				}

			}
, 			{
				"patchline" : 				{
					"destination" : [ "obj-39", 1 ],
					"source" : [ "obj-42", 0 ]
				}

			}
, 			{
				"patchline" : 				{
					"destination" : [ "obj-69", 0 ],
					"source" : [ "obj-43", 0 ]
				}

			}
, 			{
				"patchline" : 				{
					"destination" : [ "obj-24", 0 ],
					"source" : [ "obj-45", 0 ]
				}

			}
, 			{
				"patchline" : 				{
					"destination" : [ "obj-39", 0 ],
					"source" : [ "obj-46", 0 ]
				}

			}
, 			{
				"patchline" : 				{
					"destination" : [ "obj-55", 0 ],
					"source" : [ "obj-47", 0 ]
				}

			}
, 			{
				"patchline" : 				{
					"destination" : [ "obj-54", 0 ],
					"source" : [ "obj-48", 0 ]
				}

			}
, 			{
				"patchline" : 				{
					"destination" : [ "obj-264", 0 ],
					"source" : [ "obj-50", 0 ]
				}

			}
, 			{
				"patchline" : 				{
					"destination" : [ "obj-250", 1 ],
					"source" : [ "obj-51", 0 ]
				}

			}
, 			{
				"patchline" : 				{
					"destination" : [ "obj-250", 0 ],
					"source" : [ "obj-52", 0 ]
				}

			}
, 			{
				"patchline" : 				{
					"destination" : [ "obj-58", 0 ],
					"order" : 1,
					"source" : [ "obj-54", 0 ]
				}

			}
, 			{
				"patchline" : 				{
					"destination" : [ "obj-67", 0 ],
					"order" : 0,
					"source" : [ "obj-54", 0 ]
				}

			}
, 			{
				"patchline" : 				{
					"destination" : [ "obj-51", 1 ],
					"source" : [ "obj-55", 0 ]
				}

			}
, 			{
				"patchline" : 				{
					"destination" : [ "obj-51", 0 ],
					"source" : [ "obj-57", 0 ]
				}

			}
, 			{
				"patchline" : 				{
					"destination" : [ "obj-64", 0 ],
					"source" : [ "obj-58", 0 ]
				}

			}
, 			{
				"patchline" : 				{
					"destination" : [ "obj-36", 0 ],
					"source" : [ "obj-60", 0 ]
				}

			}
, 			{
				"patchline" : 				{
					"destination" : [ "obj-122", 3 ],
					"source" : [ "obj-63", 0 ]
				}

			}
, 			{
				"patchline" : 				{
					"destination" : [ "obj-264", 3 ],
					"source" : [ "obj-65", 0 ]
				}

			}
, 			{
				"patchline" : 				{
					"destination" : [ "obj-250", 3 ],
					"source" : [ "obj-66", 0 ]
				}

			}
, 			{
				"patchline" : 				{
					"destination" : [ "obj-9", 0 ],
					"source" : [ "obj-7", 0 ]
				}

			}
, 			{
				"patchline" : 				{
					"destination" : [ "obj-72", 1 ],
					"source" : [ "obj-71", 1 ]
				}

			}
, 			{
				"patchline" : 				{
					"destination" : [ "obj-72", 0 ],
					"source" : [ "obj-71", 0 ]
				}

			}
, 			{
				"patchline" : 				{
					"destination" : [ "obj-251", 0 ],
					"order" : 0,
					"source" : [ "obj-76", 0 ]
				}

			}
, 			{
				"patchline" : 				{
					"destination" : [ "obj-252", 0 ],
					"order" : 1,
					"source" : [ "obj-76", 1 ]
				}

			}
, 			{
				"patchline" : 				{
					"destination" : [ "obj-71", 1 ],
					"order" : 0,
					"source" : [ "obj-76", 1 ]
				}

			}
, 			{
				"patchline" : 				{
					"destination" : [ "obj-71", 0 ],
					"order" : 1,
					"source" : [ "obj-76", 0 ]
				}

			}
, 			{
				"patchline" : 				{
					"destination" : [ "obj-18", 4 ],
					"source" : [ "obj-77", 5 ]
				}

			}
, 			{
				"patchline" : 				{
					"destination" : [ "obj-18", 3 ],
					"source" : [ "obj-77", 4 ]
				}

			}
, 			{
				"patchline" : 				{
					"destination" : [ "obj-18", 2 ],
					"source" : [ "obj-77", 2 ]
				}

			}
, 			{
				"patchline" : 				{
					"destination" : [ "obj-18", 1 ],
					"source" : [ "obj-77", 1 ]
				}

			}
, 			{
				"patchline" : 				{
					"destination" : [ "obj-18", 0 ],
					"source" : [ "obj-77", 0 ]
				}

			}
, 			{
				"patchline" : 				{
					"destination" : [ "obj-21", 0 ],
					"midpoints" : [ 479.0, 1552.956831932067871, 502.5, 1552.956831932067871 ],
					"order" : 0,
					"source" : [ "obj-81", 0 ]
				}

			}
, 			{
				"patchline" : 				{
					"destination" : [ "obj-77", 0 ],
					"order" : 1,
					"source" : [ "obj-81", 0 ]
				}

			}
, 			{
				"patchline" : 				{
					"destination" : [ "obj-122", 2 ],
					"source" : [ "obj-87", 0 ]
				}

			}
, 			{
				"patchline" : 				{
					"destination" : [ "obj-264", 2 ],
					"source" : [ "obj-88", 0 ]
				}

			}
, 			{
				"patchline" : 				{
					"destination" : [ "obj-250", 2 ],
					"source" : [ "obj-89", 0 ]
				}

			}
, 			{
				"patchline" : 				{
					"destination" : [ "obj-12", 0 ],
					"source" : [ "obj-9", 0 ]
				}

			}
, 			{
				"patchline" : 				{
					"destination" : [ "obj-77", 0 ],
					"source" : [ "obj-92", 0 ]
				}

			}
 ],
		"parameters" : 		{
			"obj-71" : [ "live.gain~", "live.gain~", 0 ],
			"parameterbanks" : 			{
				"0" : 				{
					"index" : 0,
					"name" : "",
					"parameters" : [ "-", "-", "-", "-", "-", "-", "-", "-" ]
				}

			}
,
			"inherited_shortname" : 1
		}
,
		"dependency_cache" : [ 			{
				"name" : "HL-envelope.maxpat",
				"bootpath" : "~/workspace/projects/hyperlydian/maxmsp",
				"patcherrelativepath" : ".",
				"type" : "JSON",
				"implicit" : 1
			}
, 			{
				"name" : "HL-sequence.maxpat",
				"bootpath" : "~/workspace/projects/hyperlydian/maxmsp",
				"patcherrelativepath" : ".",
				"type" : "JSON",
				"implicit" : 1
			}
, 			{
				"name" : "HL-voice.maxpat",
				"bootpath" : "~/workspace/projects/hyperlydian/maxmsp",
				"patcherrelativepath" : ".",
				"type" : "JSON",
				"implicit" : 1
			}
, 			{
				"name" : "ampmod~.maxpat",
				"bootpath" : "~/workspace/projects/hyperlydian/maxmsp",
				"patcherrelativepath" : ".",
				"type" : "JSON",
				"implicit" : 1
			}
, 			{
				"name" : "filterselect~.maxpat",
				"bootpath" : "~/workspace/projects/hyperlydian/maxmsp",
				"patcherrelativepath" : ".",
				"type" : "JSON",
				"implicit" : 1
			}
, 			{
				"name" : "freeverb.gendsp",
				"bootpath" : "~/Library/Application Support/Cycling '74/Max 8/Examples/gen",
				"patcherrelativepath" : "../../../../Library/Application Support/Cycling '74/Max 8/Examples/gen",
				"type" : "gDSP",
				"implicit" : 1
			}
, 			{
				"name" : "freeverb_allpass.gendsp",
				"bootpath" : "~/Library/Application Support/Cycling '74/Max 8/Examples/gen",
				"patcherrelativepath" : "../../../../Library/Application Support/Cycling '74/Max 8/Examples/gen",
				"type" : "gDSP",
				"implicit" : 1
			}
, 			{
				"name" : "freeverb_comb.gendsp",
				"bootpath" : "~/Library/Application Support/Cycling '74/Max 8/Examples/gen",
				"patcherrelativepath" : "../../../../Library/Application Support/Cycling '74/Max 8/Examples/gen",
				"type" : "gDSP",
				"implicit" : 1
			}
, 			{
				"name" : "freqmod~.maxpat",
				"bootpath" : "~/workspace/projects/hyperlydian/maxmsp",
				"patcherrelativepath" : ".",
				"type" : "JSON",
				"implicit" : 1
			}
, 			{
				"name" : "music.json",
				"bootpath" : "~/workspace/projects/hyperlydian/maxmsp",
				"patcherrelativepath" : ".",
				"type" : "JSON",
				"implicit" : 1
			}
, 			{
				"name" : "o.collect.mxo",
				"type" : "iLaX"
			}
, 			{
				"name" : "o.compose.mxo",
				"type" : "iLaX"
			}
, 			{
				"name" : "o.cond.mxo",
				"type" : "iLaX"
			}
, 			{
				"name" : "o.display.mxo",
				"type" : "iLaX"
			}
, 			{
				"name" : "o.expr.codebox.mxo",
				"type" : "iLaX"
			}
, 			{
				"name" : "o.flatten.mxo",
				"type" : "iLaX"
			}
, 			{
				"name" : "o.if.mxo",
				"type" : "iLaX"
			}
, 			{
				"name" : "o.pack.mxo",
				"type" : "iLaX"
			}
, 			{
				"name" : "o.route.mxo",
				"type" : "iLaX"
			}
, 			{
				"name" : "o.select.mxo",
				"type" : "iLaX"
			}
, 			{
				"name" : "o.union.mxo",
				"type" : "iLaX"
			}
, 			{
				"name" : "o.var.mxo",
				"type" : "iLaX"
			}
, 			{
				"name" : "osc~.maxpat",
				"bootpath" : "~/workspace/projects/hyperlydian/maxmsp",
				"patcherrelativepath" : ".",
				"type" : "JSON",
				"implicit" : 1
			}
, 			{
				"name" : "sustainmodifier.js",
				"bootpath" : "~/workspace/projects/hyperlydian/maxmsp",
				"patcherrelativepath" : ".",
				"type" : "TEXT",
				"implicit" : 1
			}
, 			{
				"name" : "yafr2.maxpat",
				"bootpath" : "~/Library/Application Support/Cycling '74/Max 8/Examples/effects/reverb/lib",
				"patcherrelativepath" : "../../../../Library/Application Support/Cycling '74/Max 8/Examples/effects/reverb/lib",
				"type" : "JSON",
				"implicit" : 1
			}
 ],
		"autosave" : 0
	}

}
